<?xml version="1.0" encoding="utf-8" standalone="no"?>
<!DOCTYPE svg PUBLIC "-//W3C//DTD SVG 1.1//EN"
  "http://www.w3.org/Graphics/SVG/1.1/DTD/svg11.dtd">
<svg xmlns:xlink="http://www.w3.org/1999/xlink" width="414pt" height="180pt" viewBox="0 0 414 180" xmlns="http://www.w3.org/2000/svg" version="1.1">
 <metadata>
  <rdf:RDF xmlns:dc="http://purl.org/dc/elements/1.1/" xmlns:cc="http://creativecommons.org/ns#" xmlns:rdf="http://www.w3.org/1999/02/22-rdf-syntax-ns#">
   <cc:Work>
    <dc:type rdf:resource="http://purl.org/dc/dcmitype/StillImage"/>
    <dc:date>2026-08-02T01:10:24.654269</dc:date>
    <dc:format>image/svg+xml</dc:format>
    <dc:creator>
     <cc:Agent>
      <dc:title>Matplotlib v3.10.9, https://matplotlib.org/</dc:title>
     </cc:Agent>
    </dc:creator>
   </cc:Work>
  </rdf:RDF>
 </metadata>
 <defs>
  <style type="text/css">*{stroke-linejoin: round; stroke-linecap: butt}</style>
 </defs>
 <g id="figure_1">
  <g id="patch_1">
   <path d="M 0 180 
L 414 180 
L 414 0 
L 0 0 
L 0 180 
z
" style="fill: none"/>
  </g>
  <g id="axes_1">
   <g id="patch_2">
    <path d="M 60.080781 139.811563 
L 403.2 139.811563 
L 403.2 10.8 
L 60.080781 10.8 
L 60.080781 139.811563 
z
" style="fill: none"/>
   </g>
   <g id="matplotlib.axis_1">
    <g id="xtick_1">
     <g id="line2d_1">
      <defs>
       <path id="mbf35dbb7da" d="M 0 0 
L 0 3.5 
" style="stroke: #000000; stroke-width: 0.8"/>
      </defs>
      <g>
       <use xlink:href="#mbf35dbb7da" x="75.677109" y="139.811563" style="stroke: #000000; stroke-width: 0.8"/>
      </g>
     </g>
     <g id="text_1">
      <!-- 0 -->
      <g transform="translate(72.813984 153.650156) scale(0.09 -0.09)">
       <defs>
        <path id="DejaVuSans-30" d="M 2034 4250 
Q 1547 4250 1301 3770 
Q 1056 3291 1056 2328 
Q 1056 1369 1301 889 
Q 1547 409 2034 409 
Q 2525 409 2770 889 
Q 3016 1369 3016 2328 
Q 3016 3291 2770 3770 
Q 2525 4250 2034 4250 
z
M 2034 4750 
Q 2819 4750 3233 4129 
Q 3647 3509 3647 2328 
Q 3647 1150 3233 529 
Q 2819 -91 2034 -91 
Q 1250 -91 836 529 
Q 422 1150 422 2328 
Q 422 3509 836 4129 
Q 1250 4750 2034 4750 
z
" transform="scale(0.015625)"/>
       </defs>
       <use xlink:href="#DejaVuSans-30"/>
      </g>
     </g>
    </g>
    <g id="xtick_2">
     <g id="line2d_2">
      <g>
       <use xlink:href="#mbf35dbb7da" x="134.592934" y="139.811563" style="stroke: #000000; stroke-width: 0.8"/>
      </g>
     </g>
     <g id="text_2">
      <!-- 2 -->
      <g transform="translate(131.729809 153.650156) scale(0.09 -0.09)">
       <defs>
        <path id="DejaVuSans-32" d="M 1228 531 
L 3431 531 
L 3431 0 
L 469 0 
L 469 531 
Q 828 903 1448 1529 
Q 2069 2156 2228 2338 
Q 2531 2678 2651 2914 
Q 2772 3150 2772 3378 
Q 2772 3750 2511 3984 
Q 2250 4219 1831 4219 
Q 1534 4219 1204 4116 
Q 875 4013 500 3803 
L 500 4441 
Q 881 4594 1212 4672 
Q 1544 4750 1819 4750 
Q 2544 4750 2975 4387 
Q 3406 4025 3406 3419 
Q 3406 3131 3298 2873 
Q 3191 2616 2906 2266 
Q 2828 2175 2409 1742 
Q 1991 1309 1228 531 
z
" transform="scale(0.015625)"/>
       </defs>
       <use xlink:href="#DejaVuSans-32"/>
      </g>
     </g>
    </g>
    <g id="xtick_3">
     <g id="line2d_3">
      <g>
       <use xlink:href="#mbf35dbb7da" x="193.508759" y="139.811563" style="stroke: #000000; stroke-width: 0.8"/>
      </g>
     </g>
     <g id="text_3">
      <!-- 4 -->
      <g transform="translate(190.645634 153.650156) scale(0.09 -0.09)">
       <defs>
        <path id="DejaVuSans-34" d="M 2419 4116 
L 825 1625 
L 2419 1625 
L 2419 4116 
z
M 2253 4666 
L 3047 4666 
L 3047 1625 
L 3713 1625 
L 3713 1100 
L 3047 1100 
L 3047 0 
L 2419 0 
L 2419 1100 
L 313 1100 
L 313 1709 
L 2253 4666 
z
" transform="scale(0.015625)"/>
       </defs>
       <use xlink:href="#DejaVuSans-34"/>
      </g>
     </g>
    </g>
    <g id="xtick_4">
     <g id="line2d_4">
      <g>
       <use xlink:href="#mbf35dbb7da" x="252.424584" y="139.811563" style="stroke: #000000; stroke-width: 0.8"/>
      </g>
     </g>
     <g id="text_4">
      <!-- 6 -->
      <g transform="translate(249.561459 153.650156) scale(0.09 -0.09)">
       <defs>
        <path id="DejaVuSans-36" d="M 2113 2584 
Q 1688 2584 1439 2293 
Q 1191 2003 1191 1497 
Q 1191 994 1439 701 
Q 1688 409 2113 409 
Q 2538 409 2786 701 
Q 3034 994 3034 1497 
Q 3034 2003 2786 2293 
Q 2538 2584 2113 2584 
z
M 3366 4563 
L 3366 3988 
Q 3128 4100 2886 4159 
Q 2644 4219 2406 4219 
Q 1781 4219 1451 3797 
Q 1122 3375 1075 2522 
Q 1259 2794 1537 2939 
Q 1816 3084 2150 3084 
Q 2853 3084 3261 2657 
Q 3669 2231 3669 1497 
Q 3669 778 3244 343 
Q 2819 -91 2113 -91 
Q 1303 -91 875 529 
Q 447 1150 447 2328 
Q 447 3434 972 4092 
Q 1497 4750 2381 4750 
Q 2619 4750 2861 4703 
Q 3103 4656 3366 4563 
z
" transform="scale(0.015625)"/>
       </defs>
       <use xlink:href="#DejaVuSans-36"/>
      </g>
     </g>
    </g>
    <g id="xtick_5">
     <g id="line2d_5">
      <g>
       <use xlink:href="#mbf35dbb7da" x="311.340409" y="139.811563" style="stroke: #000000; stroke-width: 0.8"/>
      </g>
     </g>
     <g id="text_5">
      <!-- 8 -->
      <g transform="translate(308.477284 153.650156) scale(0.09 -0.09)">
       <defs>
        <path id="DejaVuSans-38" d="M 2034 2216 
Q 1584 2216 1326 1975 
Q 1069 1734 1069 1313 
Q 1069 891 1326 650 
Q 1584 409 2034 409 
Q 2484 409 2743 651 
Q 3003 894 3003 1313 
Q 3003 1734 2745 1975 
Q 2488 2216 2034 2216 
z
M 1403 2484 
Q 997 2584 770 2862 
Q 544 3141 544 3541 
Q 544 4100 942 4425 
Q 1341 4750 2034 4750 
Q 2731 4750 3128 4425 
Q 3525 4100 3525 3541 
Q 3525 3141 3298 2862 
Q 3072 2584 2669 2484 
Q 3125 2378 3379 2068 
Q 3634 1759 3634 1313 
Q 3634 634 3220 271 
Q 2806 -91 2034 -91 
Q 1263 -91 848 271 
Q 434 634 434 1313 
Q 434 1759 690 2068 
Q 947 2378 1403 2484 
z
M 1172 3481 
Q 1172 3119 1398 2916 
Q 1625 2713 2034 2713 
Q 2441 2713 2670 2916 
Q 2900 3119 2900 3481 
Q 2900 3844 2670 4047 
Q 2441 4250 2034 4250 
Q 1625 4250 1398 4047 
Q 1172 3844 1172 3481 
z
" transform="scale(0.015625)"/>
       </defs>
       <use xlink:href="#DejaVuSans-38"/>
      </g>
     </g>
    </g>
    <g id="xtick_6">
     <g id="line2d_6">
      <g>
       <use xlink:href="#mbf35dbb7da" x="370.256235" y="139.811563" style="stroke: #000000; stroke-width: 0.8"/>
      </g>
     </g>
     <g id="text_6">
      <!-- 10 -->
      <g transform="translate(364.529985 153.650156) scale(0.09 -0.09)">
       <defs>
        <path id="DejaVuSans-31" d="M 794 531 
L 1825 531 
L 1825 4091 
L 703 3866 
L 703 4441 
L 1819 4666 
L 2450 4666 
L 2450 531 
L 3481 531 
L 3481 0 
L 794 0 
L 794 531 
z
" transform="scale(0.015625)"/>
       </defs>
       <use xlink:href="#DejaVuSans-31"/>
       <use xlink:href="#DejaVuSans-30" transform="translate(63.623047 0)"/>
      </g>
     </g>
    </g>
    <g id="text_7">
     <!-- Time [hr] -->
     <g transform="translate(208.691953 167.120313) scale(0.1 -0.1)">
      <defs>
       <path id="DejaVuSans-54" d="M -19 4666 
L 3928 4666 
L 3928 4134 
L 2272 4134 
L 2272 0 
L 1638 0 
L 1638 4134 
L -19 4134 
L -19 4666 
z
" transform="scale(0.015625)"/>
       <path id="DejaVuSans-69" d="M 603 3500 
L 1178 3500 
L 1178 0 
L 603 0 
L 603 3500 
z
M 603 4863 
L 1178 4863 
L 1178 4134 
L 603 4134 
L 603 4863 
z
" transform="scale(0.015625)"/>
       <path id="DejaVuSans-6d" d="M 3328 2828 
Q 3544 3216 3844 3400 
Q 4144 3584 4550 3584 
Q 5097 3584 5394 3201 
Q 5691 2819 5691 2113 
L 5691 0 
L 5113 0 
L 5113 2094 
Q 5113 2597 4934 2840 
Q 4756 3084 4391 3084 
Q 3944 3084 3684 2787 
Q 3425 2491 3425 1978 
L 3425 0 
L 2847 0 
L 2847 2094 
Q 2847 2600 2669 2842 
Q 2491 3084 2119 3084 
Q 1678 3084 1418 2786 
Q 1159 2488 1159 1978 
L 1159 0 
L 581 0 
L 581 3500 
L 1159 3500 
L 1159 2956 
Q 1356 3278 1631 3431 
Q 1906 3584 2284 3584 
Q 2666 3584 2933 3390 
Q 3200 3197 3328 2828 
z
" transform="scale(0.015625)"/>
       <path id="DejaVuSans-65" d="M 3597 1894 
L 3597 1613 
L 953 1613 
Q 991 1019 1311 708 
Q 1631 397 2203 397 
Q 2534 397 2845 478 
Q 3156 559 3463 722 
L 3463 178 
Q 3153 47 2828 -22 
Q 2503 -91 2169 -91 
Q 1331 -91 842 396 
Q 353 884 353 1716 
Q 353 2575 817 3079 
Q 1281 3584 2069 3584 
Q 2775 3584 3186 3129 
Q 3597 2675 3597 1894 
z
M 3022 2063 
Q 3016 2534 2758 2815 
Q 2500 3097 2075 3097 
Q 1594 3097 1305 2825 
Q 1016 2553 972 2059 
L 3022 2063 
z
" transform="scale(0.015625)"/>
       <path id="DejaVuSans-20" transform="scale(0.015625)"/>
       <path id="DejaVuSans-5b" d="M 550 4863 
L 1875 4863 
L 1875 4416 
L 1125 4416 
L 1125 -397 
L 1875 -397 
L 1875 -844 
L 550 -844 
L 550 4863 
z
" transform="scale(0.015625)"/>
       <path id="DejaVuSans-68" d="M 3513 2113 
L 3513 0 
L 2938 0 
L 2938 2094 
Q 2938 2591 2744 2837 
Q 2550 3084 2163 3084 
Q 1697 3084 1428 2787 
Q 1159 2491 1159 1978 
L 1159 0 
L 581 0 
L 581 4863 
L 1159 4863 
L 1159 2956 
Q 1366 3272 1645 3428 
Q 1925 3584 2291 3584 
Q 2894 3584 3203 3211 
Q 3513 2838 3513 2113 
z
" transform="scale(0.015625)"/>
       <path id="DejaVuSans-72" d="M 2631 2963 
Q 2534 3019 2420 3045 
Q 2306 3072 2169 3072 
Q 1681 3072 1420 2755 
Q 1159 2438 1159 1844 
L 1159 0 
L 581 0 
L 581 3500 
L 1159 3500 
L 1159 2956 
Q 1341 3275 1631 3429 
Q 1922 3584 2338 3584 
Q 2397 3584 2469 3576 
Q 2541 3569 2628 3553 
L 2631 2963 
z
" transform="scale(0.015625)"/>
       <path id="DejaVuSans-5d" d="M 1947 4863 
L 1947 -844 
L 622 -844 
L 622 -397 
L 1369 -397 
L 1369 4416 
L 622 4416 
L 622 4863 
L 1947 4863 
z
" transform="scale(0.015625)"/>
      </defs>
      <use xlink:href="#DejaVuSans-54"/>
      <use xlink:href="#DejaVuSans-69" transform="translate(57.958984 0)"/>
      <use xlink:href="#DejaVuSans-6d" transform="translate(85.742188 0)"/>
      <use xlink:href="#DejaVuSans-65" transform="translate(183.154297 0)"/>
      <use xlink:href="#DejaVuSans-20" transform="translate(244.677734 0)"/>
      <use xlink:href="#DejaVuSans-5b" transform="translate(276.464844 0)"/>
      <use xlink:href="#DejaVuSans-68" transform="translate(315.478516 0)"/>
      <use xlink:href="#DejaVuSans-72" transform="translate(378.857422 0)"/>
      <use xlink:href="#DejaVuSans-5d" transform="translate(419.970703 0)"/>
     </g>
    </g>
   </g>
   <g id="matplotlib.axis_2">
    <g id="ytick_1">
     <g id="line2d_7">
      <defs>
       <path id="m4fe2cb11c7" d="M 0 0 
L -3.5 0 
" style="stroke: #000000; stroke-width: 0.8"/>
      </defs>
      <g>
       <use xlink:href="#m4fe2cb11c7" x="60.080781" y="133.947401" style="stroke: #000000; stroke-width: 0.8"/>
      </g>
     </g>
     <g id="text_8">
      <!-- −1.00 -->
      <g transform="translate(25.5 137.366697) scale(0.09 -0.09)">
       <defs>
        <path id="DejaVuSans-2212" d="M 678 2272 
L 4684 2272 
L 4684 1741 
L 678 1741 
L 678 2272 
z
" transform="scale(0.015625)"/>
        <path id="DejaVuSans-2e" d="M 684 794 
L 1344 794 
L 1344 0 
L 684 0 
L 684 794 
z
" transform="scale(0.015625)"/>
       </defs>
       <use xlink:href="#DejaVuSans-2212"/>
       <use xlink:href="#DejaVuSans-31" transform="translate(83.789062 0)"/>
       <use xlink:href="#DejaVuSans-2e" transform="translate(147.412109 0)"/>
       <use xlink:href="#DejaVuSans-30" transform="translate(179.199219 0)"/>
       <use xlink:href="#DejaVuSans-30" transform="translate(242.822266 0)"/>
      </g>
     </g>
    </g>
    <g id="ytick_2">
     <g id="line2d_8">
      <g>
       <use xlink:href="#m4fe2cb11c7" x="60.080781" y="114.876885" style="stroke: #000000; stroke-width: 0.8"/>
      </g>
     </g>
     <g id="text_9">
      <!-- −0.75 -->
      <g transform="translate(25.5 118.296182) scale(0.09 -0.09)">
       <defs>
        <path id="DejaVuSans-37" d="M 525 4666 
L 3525 4666 
L 3525 4397 
L 1831 0 
L 1172 0 
L 2766 4134 
L 525 4134 
L 525 4666 
z
" transform="scale(0.015625)"/>
        <path id="DejaVuSans-35" d="M 691 4666 
L 3169 4666 
L 3169 4134 
L 1269 4134 
L 1269 2991 
Q 1406 3038 1543 3061 
Q 1681 3084 1819 3084 
Q 2600 3084 3056 2656 
Q 3513 2228 3513 1497 
Q 3513 744 3044 326 
Q 2575 -91 1722 -91 
Q 1428 -91 1123 -41 
Q 819 9 494 109 
L 494 744 
Q 775 591 1075 516 
Q 1375 441 1709 441 
Q 2250 441 2565 725 
Q 2881 1009 2881 1497 
Q 2881 1984 2565 2268 
Q 2250 2553 1709 2553 
Q 1456 2553 1204 2497 
Q 953 2441 691 2322 
L 691 4666 
z
" transform="scale(0.015625)"/>
       </defs>
       <use xlink:href="#DejaVuSans-2212"/>
       <use xlink:href="#DejaVuSans-30" transform="translate(83.789062 0)"/>
       <use xlink:href="#DejaVuSans-2e" transform="translate(147.412109 0)"/>
       <use xlink:href="#DejaVuSans-37" transform="translate(179.199219 0)"/>
       <use xlink:href="#DejaVuSans-35" transform="translate(242.822266 0)"/>
      </g>
     </g>
    </g>
    <g id="ytick_3">
     <g id="line2d_9">
      <g>
       <use xlink:href="#m4fe2cb11c7" x="60.080781" y="95.806369" style="stroke: #000000; stroke-width: 0.8"/>
      </g>
     </g>
     <g id="text_10">
      <!-- −0.50 -->
      <g transform="translate(25.5 99.225666) scale(0.09 -0.09)">
       <use xlink:href="#DejaVuSans-2212"/>
       <use xlink:href="#DejaVuSans-30" transform="translate(83.789062 0)"/>
       <use xlink:href="#DejaVuSans-2e" transform="translate(147.412109 0)"/>
       <use xlink:href="#DejaVuSans-35" transform="translate(179.199219 0)"/>
       <use xlink:href="#DejaVuSans-30" transform="translate(242.822266 0)"/>
      </g>
     </g>
    </g>
    <g id="ytick_4">
     <g id="line2d_10">
      <g>
       <use xlink:href="#m4fe2cb11c7" x="60.080781" y="76.735853" style="stroke: #000000; stroke-width: 0.8"/>
      </g>
     </g>
     <g id="text_11">
      <!-- −0.25 -->
      <g transform="translate(25.5 80.15515) scale(0.09 -0.09)">
       <use xlink:href="#DejaVuSans-2212"/>
       <use xlink:href="#DejaVuSans-30" transform="translate(83.789062 0)"/>
       <use xlink:href="#DejaVuSans-2e" transform="translate(147.412109 0)"/>
       <use xlink:href="#DejaVuSans-32" transform="translate(179.199219 0)"/>
       <use xlink:href="#DejaVuSans-35" transform="translate(242.822266 0)"/>
      </g>
     </g>
    </g>
    <g id="ytick_5">
     <g id="line2d_11">
      <g>
       <use xlink:href="#m4fe2cb11c7" x="60.080781" y="57.665338" style="stroke: #000000; stroke-width: 0.8"/>
      </g>
     </g>
     <g id="text_12">
      <!-- 0.00 -->
      <g transform="translate(33.041719 61.084635) scale(0.09 -0.09)">
       <use xlink:href="#DejaVuSans-30"/>
       <use xlink:href="#DejaVuSans-2e" transform="translate(63.623047 0)"/>
       <use xlink:href="#DejaVuSans-30" transform="translate(95.410156 0)"/>
       <use xlink:href="#DejaVuSans-30" transform="translate(159.033203 0)"/>
      </g>
     </g>
    </g>
    <g id="ytick_6">
     <g id="line2d_12">
      <g>
       <use xlink:href="#m4fe2cb11c7" x="60.080781" y="38.594822" style="stroke: #000000; stroke-width: 0.8"/>
      </g>
     </g>
     <g id="text_13">
      <!-- 0.25 -->
      <g transform="translate(33.041719 42.014119) scale(0.09 -0.09)">
       <use xlink:href="#DejaVuSans-30"/>
       <use xlink:href="#DejaVuSans-2e" transform="translate(63.623047 0)"/>
       <use xlink:href="#DejaVuSans-32" transform="translate(95.410156 0)"/>
       <use xlink:href="#DejaVuSans-35" transform="translate(159.033203 0)"/>
      </g>
     </g>
    </g>
    <g id="ytick_7">
     <g id="line2d_13">
      <g>
       <use xlink:href="#m4fe2cb11c7" x="60.080781" y="19.524306" style="stroke: #000000; stroke-width: 0.8"/>
      </g>
     </g>
     <g id="text_14">
      <!-- 0.50 -->
      <g transform="translate(33.041719 22.943603) scale(0.09 -0.09)">
       <use xlink:href="#DejaVuSans-30"/>
       <use xlink:href="#DejaVuSans-2e" transform="translate(63.623047 0)"/>
       <use xlink:href="#DejaVuSans-35" transform="translate(95.410156 0)"/>
       <use xlink:href="#DejaVuSans-30" transform="translate(159.033203 0)"/>
      </g>
     </g>
    </g>
    <g id="text_15">
     <!-- $(\rho_{stoch} / \rho_{exp}) - 1$ [-] -->
     <g transform="translate(18.4 120.055781) rotate(-90) scale(0.1 -0.1)">
      <defs>
       <path id="DejaVuSans-28" d="M 1984 4856 
Q 1566 4138 1362 3434 
Q 1159 2731 1159 2009 
Q 1159 1288 1364 580 
Q 1569 -128 1984 -844 
L 1484 -844 
Q 1016 -109 783 600 
Q 550 1309 550 2009 
Q 550 2706 781 3412 
Q 1013 4119 1484 4856 
L 1984 4856 
z
" transform="scale(0.015625)"/>
       <path id="DejaVuSans-Oblique-3c1" d="M 1203 2875 
Q 1453 3194 1981 3475 
Q 2188 3584 2756 3584 
Q 3394 3584 3694 3078 
Q 3994 2572 3834 1747 
Q 3672 922 3175 415 
Q 2678 -91 2041 -91 
Q 1656 -91 1409 63 
Q 1163 213 1044 525 
L 681 -1331 
L 103 -1331 
L 697 1716 
Q 838 2438 1203 2875 
z
M 3238 1747 
Q 3359 2381 3169 2744 
Q 2978 3103 2522 3103 
Q 2066 3103 1734 2744 
Q 1403 2381 1281 1747 
Q 1156 1113 1347 750 
Q 1538 391 1994 391 
Q 2450 391 2781 750 
Q 3113 1113 3238 1747 
z
" transform="scale(0.015625)"/>
       <path id="DejaVuSans-Oblique-73" d="M 3200 3397 
L 3091 2853 
Q 2863 2978 2609 3040 
Q 2356 3103 2088 3103 
Q 1634 3103 1373 2948 
Q 1113 2794 1113 2528 
Q 1113 2219 1719 2053 
Q 1766 2041 1788 2034 
L 1972 1978 
Q 2547 1819 2739 1644 
Q 2931 1469 2931 1166 
Q 2931 609 2489 259 
Q 2047 -91 1331 -91 
Q 1053 -91 747 -37 
Q 441 16 72 128 
L 184 722 
Q 500 559 806 475 
Q 1113 391 1394 391 
Q 1816 391 2080 572 
Q 2344 753 2344 1031 
Q 2344 1331 1650 1516 
L 1591 1531 
L 1394 1581 
Q 956 1697 753 1886 
Q 550 2075 550 2369 
Q 550 2928 970 3256 
Q 1391 3584 2113 3584 
Q 2397 3584 2667 3537 
Q 2938 3491 3200 3397 
z
" transform="scale(0.015625)"/>
       <path id="DejaVuSans-Oblique-74" d="M 2706 3500 
L 2619 3053 
L 1472 3053 
L 1100 1153 
Q 1081 1047 1072 975 
Q 1063 903 1063 863 
Q 1063 663 1183 572 
Q 1303 481 1569 481 
L 2150 481 
L 2053 0 
L 1503 0 
Q 991 0 739 200 
Q 488 400 488 806 
Q 488 878 497 964 
Q 506 1050 525 1153 
L 897 3053 
L 409 3053 
L 500 3500 
L 978 3500 
L 1172 4494 
L 1747 4494 
L 1556 3500 
L 2706 3500 
z
" transform="scale(0.015625)"/>
       <path id="DejaVuSans-Oblique-6f" d="M 1625 -91 
Q 1009 -91 651 289 
Q 294 669 294 1325 
Q 294 1706 417 2101 
Q 541 2497 738 2766 
Q 1047 3184 1428 3384 
Q 1809 3584 2291 3584 
Q 2888 3584 3255 3212 
Q 3622 2841 3622 2241 
Q 3622 1825 3500 1412 
Q 3378 1000 3181 728 
Q 2875 309 2494 109 
Q 2113 -91 1625 -91 
z
M 891 1344 
Q 891 869 1089 633 
Q 1288 397 1691 397 
Q 2269 397 2648 901 
Q 3028 1406 3028 2181 
Q 3028 2634 2825 2865 
Q 2622 3097 2228 3097 
Q 1903 3097 1650 2945 
Q 1397 2794 1197 2484 
Q 1050 2253 970 1956 
Q 891 1659 891 1344 
z
" transform="scale(0.015625)"/>
       <path id="DejaVuSans-Oblique-63" d="M 3431 3366 
L 3316 2797 
Q 3109 2947 2876 3022 
Q 2644 3097 2394 3097 
Q 2119 3097 1870 3000 
Q 1622 2903 1453 2725 
Q 1184 2453 1037 2087 
Q 891 1722 891 1331 
Q 891 859 1127 628 
Q 1363 397 1844 397 
Q 2081 397 2348 469 
Q 2616 541 2906 684 
L 2797 116 
Q 2547 13 2283 -39 
Q 2019 -91 1741 -91 
Q 1044 -91 669 257 
Q 294 606 294 1253 
Q 294 1797 489 2255 
Q 684 2713 1069 3078 
Q 1331 3328 1684 3456 
Q 2038 3584 2456 3584 
Q 2700 3584 2940 3529 
Q 3181 3475 3431 3366 
z
" transform="scale(0.015625)"/>
       <path id="DejaVuSans-Oblique-68" d="M 3566 2113 
L 3156 0 
L 2578 0 
L 2988 2091 
Q 3016 2238 3031 2350 
Q 3047 2463 3047 2528 
Q 3047 2791 2881 2937 
Q 2716 3084 2419 3084 
Q 1956 3084 1617 2771 
Q 1278 2459 1178 1941 
L 800 0 
L 225 0 
L 1172 4863 
L 1747 4863 
L 1375 2950 
Q 1594 3244 1934 3414 
Q 2275 3584 2650 3584 
Q 3113 3584 3367 3334 
Q 3622 3084 3622 2631 
Q 3622 2519 3608 2391 
Q 3594 2263 3566 2113 
z
" transform="scale(0.015625)"/>
       <path id="DejaVuSans-2f" d="M 1625 4666 
L 2156 4666 
L 531 -594 
L 0 -594 
L 1625 4666 
z
" transform="scale(0.015625)"/>
       <path id="DejaVuSans-Oblique-65" d="M 3078 2063 
Q 3088 2113 3092 2166 
Q 3097 2219 3097 2272 
Q 3097 2653 2873 2875 
Q 2650 3097 2266 3097 
Q 1838 3097 1509 2826 
Q 1181 2556 1013 2059 
L 3078 2063 
z
M 3578 1613 
L 903 1613 
Q 884 1494 878 1425 
Q 872 1356 872 1306 
Q 872 872 1139 634 
Q 1406 397 1894 397 
Q 2269 397 2603 481 
Q 2938 566 3225 728 
L 3116 159 
Q 2806 34 2476 -28 
Q 2147 -91 1806 -91 
Q 1078 -91 686 257 
Q 294 606 294 1247 
Q 294 1794 489 2264 
Q 684 2734 1063 3103 
Q 1306 3334 1642 3459 
Q 1978 3584 2356 3584 
Q 2950 3584 3301 3228 
Q 3653 2872 3653 2272 
Q 3653 2128 3634 1964 
Q 3616 1800 3578 1613 
z
" transform="scale(0.015625)"/>
       <path id="DejaVuSans-Oblique-78" d="M 3841 3500 
L 2234 1784 
L 3219 0 
L 2559 0 
L 1819 1388 
L 531 0 
L -166 0 
L 1556 1844 
L 641 3500 
L 1300 3500 
L 1972 2234 
L 3144 3500 
L 3841 3500 
z
" transform="scale(0.015625)"/>
       <path id="DejaVuSans-Oblique-70" d="M 3175 2156 
Q 3175 2616 2975 2859 
Q 2775 3103 2400 3103 
Q 2144 3103 1911 2972 
Q 1678 2841 1497 2591 
Q 1319 2344 1212 1994 
Q 1106 1644 1106 1300 
Q 1106 863 1306 627 
Q 1506 391 1875 391 
Q 2147 391 2380 519 
Q 2613 647 2778 891 
Q 2956 1147 3065 1494 
Q 3175 1841 3175 2156 
z
M 1394 2969 
Q 1625 3272 1939 3428 
Q 2253 3584 2638 3584 
Q 3175 3584 3472 3232 
Q 3769 2881 3769 2247 
Q 3769 1728 3584 1258 
Q 3400 788 3053 416 
Q 2822 169 2531 39 
Q 2241 -91 1919 -91 
Q 1547 -91 1294 64 
Q 1041 219 916 525 
L 556 -1331 
L -19 -1331 
L 922 3500 
L 1497 3500 
L 1394 2969 
z
" transform="scale(0.015625)"/>
       <path id="DejaVuSans-29" d="M 513 4856 
L 1013 4856 
Q 1481 4119 1714 3412 
Q 1947 2706 1947 2009 
Q 1947 1309 1714 600 
Q 1481 -109 1013 -844 
L 513 -844 
Q 928 -128 1133 580 
Q 1338 1288 1338 2009 
Q 1338 2731 1133 3434 
Q 928 4138 513 4856 
z
" transform="scale(0.015625)"/>
       <path id="DejaVuSans-2d" d="M 313 2009 
L 1997 2009 
L 1997 1497 
L 313 1497 
L 313 2009 
z
" transform="scale(0.015625)"/>
      </defs>
      <use xlink:href="#DejaVuSans-28" transform="translate(0 0.015625)"/>
      <use xlink:href="#DejaVuSans-Oblique-3c1" transform="translate(39.013672 0.015625)"/>
      <use xlink:href="#DejaVuSans-Oblique-73" transform="translate(102.490234 -16.390625) scale(0.7)"/>
      <use xlink:href="#DejaVuSans-Oblique-74" transform="translate(138.959961 -16.390625) scale(0.7)"/>
      <use xlink:href="#DejaVuSans-Oblique-6f" transform="translate(166.40625 -16.390625) scale(0.7)"/>
      <use xlink:href="#DejaVuSans-Oblique-63" transform="translate(209.233398 -16.390625) scale(0.7)"/>
      <use xlink:href="#DejaVuSans-Oblique-68" transform="translate(247.719727 -16.390625) scale(0.7)"/>
      <use xlink:href="#DejaVuSans-2f" transform="translate(294.819336 0.015625)"/>
      <use xlink:href="#DejaVuSans-Oblique-3c1" transform="translate(328.510742 0.015625)"/>
      <use xlink:href="#DejaVuSans-Oblique-65" transform="translate(391.987305 -16.390625) scale(0.7)"/>
      <use xlink:href="#DejaVuSans-Oblique-78" transform="translate(435.053711 -16.390625) scale(0.7)"/>
      <use xlink:href="#DejaVuSans-Oblique-70" transform="translate(476.479492 -16.390625) scale(0.7)"/>
      <use xlink:href="#DejaVuSans-29" transform="translate(523.647461 0.015625)"/>
      <use xlink:href="#DejaVuSans-2212" transform="translate(582.143555 0.015625)"/>
      <use xlink:href="#DejaVuSans-31" transform="translate(685.415039 0.015625)"/>
      <use xlink:href="#DejaVuSans-20" transform="translate(749.038086 0.015625)"/>
      <use xlink:href="#DejaVuSans-5b" transform="translate(780.825195 0.015625)"/>
      <use xlink:href="#DejaVuSans-2d" transform="translate(819.838867 0.015625)"/>
      <use xlink:href="#DejaVuSans-5d" transform="translate(855.922852 0.015625)"/>
     </g>
    </g>
   </g>
   <g id="line2d_14">
    <path d="M 75.677109 133.947401 
L 75.758937 52.793289 
L 75.840764 67.364197 
L 75.922592 63.258079 
L 76.168075 39.235339 
L 76.33173 24.375349 
L 76.413557 39.154023 
L 76.495385 36.49919 
L 76.577212 40.313396 
L 76.65904 26.013599 
L 76.822695 39.90113 
L 76.98635 21.991025 
L 77.068177 35.644536 
L 77.150005 33.438155 
L 77.231833 32.823122 
L 77.31366 30.753268 
L 77.477315 43.949311 
L 77.64097 28.963479 
L 77.804625 38.274987 
L 77.886453 30.973521 
L 77.96828 41.663466 
L 78.050108 35.127412 
L 78.213763 52.452183 
L 78.29559 50.515443 
L 78.377418 56.678963 
L 78.541073 43.153597 
L 78.622901 51.63378 
L 78.704728 44.357564 
L 78.786556 56.964157 
L 78.868383 32.088696 
L 78.950211 49.902568 
L 79.032038 39.219438 
L 79.277521 58.918273 
L 79.441176 52.863777 
L 79.523004 50.715375 
L 79.604831 56.525443 
L 79.686659 54.666043 
L 79.768486 48.738502 
L 80.095796 71.113181 
L 80.177624 66.925769 
L 80.259451 72.012699 
L 80.341279 65.417243 
L 80.504934 74.852753 
L 80.586761 71.840779 
L 80.668589 76.483756 
L 80.750417 70.963642 
L 80.832244 73.498367 
L 80.995899 55.625716 
L 81.159554 72.132792 
L 81.241382 64.423934 
L 81.323209 70.023953 
L 81.405037 69.715212 
L 81.486864 60.680225 
L 81.732347 80.932452 
L 81.814174 72.363992 
L 81.896002 73.111737 
L 81.97783 78.363728 
L 82.059657 73.728643 
L 82.141485 75.495002 
L 82.223312 68.273089 
L 82.30514 69.480169 
L 82.386967 67.62223 
L 82.468795 61.737201 
L 82.550622 70.530033 
L 82.877932 47.290559 
L 82.95976 58.363769 
L 83.041588 56.367977 
L 83.123415 55.968771 
L 83.205243 80.506611 
L 83.368898 56.519692 
L 83.532553 79.187717 
L 83.61438 75.323657 
L 83.778035 77.991675 
L 83.859863 73.716615 
L 83.94169 53.212026 
L 84.023518 55.191436 
L 84.105345 62.790098 
L 84.187173 41.357816 
L 84.350828 65.269544 
L 84.432656 70.931927 
L 84.514483 61.601758 
L 84.596311 62.834645 
L 85.005448 34.469884 
L 85.169103 45.416486 
L 85.250931 44.82674 
L 85.332758 45.370119 
L 85.414586 64.520766 
L 85.496414 54.491324 
L 85.578241 65.02645 
L 85.660069 47.420324 
L 85.741896 55.13821 
L 85.823724 48.386819 
L 85.905551 49.224137 
L 85.987379 47.462121 
L 86.232861 63.216499 
L 86.314689 58.318653 
L 86.396516 68.395401 
L 86.478344 67.264033 
L 86.560171 67.225402 
L 86.641999 70.35993 
L 86.723827 70.038787 
L 86.805654 60.267992 
L 86.887482 78.544615 
L 87.051137 58.828544 
L 87.214792 75.679128 
L 87.296619 70.125322 
L 87.378447 75.341856 
L 87.460274 73.702004 
L 87.542102 76.902336 
L 87.623929 72.262512 
L 87.705757 72.856647 
L 87.787585 84.029373 
L 87.869412 82.329519 
L 87.95124 71.523612 
L 88.033067 75.974594 
L 88.114895 50.93954 
L 88.196722 67.577192 
L 88.27855 49.167537 
L 88.360377 52.07846 
L 88.442205 76.598598 
L 88.524032 70.871352 
L 88.687687 55.935671 
L 88.769515 61.402939 
L 88.851342 49.731234 
L 89.014998 66.232665 
L 89.096825 64.987348 
L 89.178653 54.241393 
L 89.342308 66.946494 
L 89.424135 66.095004 
L 89.505963 64.046887 
L 89.58779 74.624861 
L 89.751445 64.20858 
L 89.833273 77.414048 
L 89.996928 65.81707 
L 90.078755 81.108235 
L 90.160583 76.062078 
L 90.242411 79.386015 
L 90.324238 70.79488 
L 90.406066 73.313079 
L 90.569721 76.413996 
L 90.651548 74.893933 
L 90.733376 81.092379 
L 90.897031 67.013881 
L 90.978858 55.411967 
L 91.142513 64.028019 
L 91.224341 54.87359 
L 91.387996 63.669256 
L 91.469824 57.842246 
L 91.797134 74.531639 
L 91.878961 79.050896 
L 92.124444 63.978183 
L 92.288099 68.771713 
L 92.369926 57.737176 
L 92.451754 60.064643 
L 92.697237 46.046255 
L 92.779064 46.352765 
L 92.860892 46.687158 
L 92.942719 56.665595 
L 93.024547 45.33788 
L 93.188202 60.018173 
L 93.351857 45.976514 
L 93.433684 45.259182 
L 93.597339 67.2065 
L 93.679167 67.13377 
L 93.842822 52.495101 
L 94.006477 68.904542 
L 94.088305 62.382925 
L 94.170132 46.053441 
L 94.25196 69.247056 
L 94.333787 45.252463 
L 94.415615 46.333081 
L 94.497442 55.54656 
L 94.57927 53.618623 
L 94.661097 55.353037 
L 94.742925 59.692096 
L 94.824753 55.674359 
L 94.90658 67.206192 
L 94.988408 63.636083 
L 95.152063 58.468821 
L 95.23389 64.162264 
L 95.479373 36.494317 
L 95.5612 44.16509 
L 95.643028 29.984149 
L 95.806683 41.49399 
L 95.88851 40.858256 
L 95.970338 47.886352 
L 96.052166 41.489484 
L 96.215821 59.159468 
L 96.297648 34.619658 
L 96.379476 42.046756 
L 96.461303 32.6463 
L 96.543131 46.621043 
L 96.624958 43.427022 
L 96.706786 34.709934 
L 96.870441 47.94608 
L 96.952268 38.715876 
L 97.279579 51.329595 
L 97.361406 50.722466 
L 97.525061 65.138096 
L 97.688716 42.664529 
L 97.770544 56.838789 
L 97.852371 45.01258 
L 97.934199 60.235393 
L 98.016026 35.000913 
L 98.179681 50.698063 
L 98.261509 49.207743 
L 98.343337 54.938021 
L 98.425164 43.335298 
L 98.506992 53.237114 
L 98.588819 47.912122 
L 98.670647 48.243921 
L 98.752474 50.57187 
L 98.834302 44.657254 
L 98.916129 51.333479 
L 99.079784 25.599491 
L 99.161612 41.154038 
L 99.243439 28.831019 
L 99.325267 39.734181 
L 99.407094 38.273281 
L 99.488922 36.879845 
L 99.652577 47.836762 
L 99.816232 39.217953 
L 99.89806 42.232835 
L 99.979887 40.982936 
L 100.061715 36.333922 
L 100.143542 41.194999 
L 100.22537 30.326152 
L 100.307197 39.735956 
L 100.470852 27.934613 
L 100.55268 37.629349 
L 100.634507 27.493214 
L 100.716335 47.246515 
L 100.798163 36.085569 
L 100.87999 40.982911 
L 100.961818 36.22018 
L 101.043645 52.733958 
L 101.125473 43.714657 
L 101.2073 55.502477 
L 101.452783 21.538938 
L 101.53461 37.13486 
L 101.616438 29.909182 
L 101.698265 31.506453 
L 101.86192 41.731885 
L 101.943748 36.558176 
L 102.025576 39.424333 
L 102.271058 59.149547 
L 102.352886 43.679091 
L 102.434713 47.860109 
L 102.516541 58.583147 
L 102.598368 32.863104 
L 102.680196 39.385727 
L 102.925678 31.726376 
L 103.089334 42.051941 
L 103.171161 29.803351 
L 103.252989 33.742173 
L 103.416644 62.735697 
L 103.498471 52.397923 
L 103.580299 54.500346 
L 103.662126 51.081967 
L 103.825781 78.140254 
L 104.071264 44.229217 
L 104.153091 40.06272 
L 104.234919 52.910016 
L 104.480402 34.604783 
L 104.562229 41.866738 
L 104.644057 39.395321 
L 104.725884 35.425344 
L 104.889539 46.226935 
L 104.971367 40.287624 
L 105.053194 40.889556 
L 105.216849 46.875061 
L 105.298677 43.350788 
L 105.380504 48.225145 
L 105.462332 66.057475 
L 105.54416 63.183844 
L 105.625987 58.189553 
L 105.707815 62.420309 
L 105.789642 50.685967 
L 106.116952 66.770905 
L 106.280607 50.934185 
L 106.362435 57.686609 
L 106.444262 53.93038 
L 106.52609 68.391881 
L 106.607918 68.16479 
L 106.771573 54.960615 
L 106.8534 63.744474 
L 106.935228 58.258173 
L 107.017055 63.13605 
L 107.098883 42.188887 
L 107.18071 45.851416 
L 107.262538 46.222223 
L 107.426193 65.937 
L 107.589848 40.416317 
L 107.835331 69.846188 
L 107.917158 58.703016 
L 107.998986 70.466064 
L 108.162641 60.612174 
L 108.244468 62.681451 
L 108.326296 50.798367 
L 108.408123 53.287461 
L 108.653606 66.790028 
L 108.735433 61.033545 
L 108.899088 70.810112 
L 109.062744 55.824214 
L 109.144571 57.300416 
L 109.226399 49.380994 
L 109.308226 50.196586 
L 109.471881 62.019907 
L 109.553709 79.115808 
L 109.635536 54.175134 
L 109.717364 75.550493 
L 109.799191 70.009422 
L 109.881019 60.451023 
L 110.044674 78.833206 
L 110.126502 73.510305 
L 110.208329 52.476381 
L 110.371984 71.186924 
L 110.535639 65.191548 
L 110.781122 75.128282 
L 110.862949 64.616772 
L 110.944777 67.667398 
L 111.026604 60.261532 
L 111.108432 61.417917 
L 111.190259 64.235273 
L 111.272087 40.89544 
L 111.353915 56.252683 
L 111.435742 34.803122 
L 111.51757 38.749752 
L 111.599397 43.902883 
L 111.681225 41.877529 
L 111.763052 45.709074 
L 111.84488 42.283152 
L 111.926707 51.531152 
L 112.008535 46.135673 
L 112.090362 59.626321 
L 112.254017 44.888729 
L 112.417672 60.226959 
L 112.4995 59.948941 
L 112.581328 66.499134 
L 112.744983 39.517328 
L 112.908638 69.849169 
L 112.990465 59.327547 
L 113.072293 60.057503 
L 113.15412 60.964143 
L 113.235948 39.227888 
L 113.317775 52.317635 
L 113.399603 42.662736 
L 113.48143 54.256848 
L 113.563258 47.985733 
L 113.726913 59.357351 
L 113.808741 44.350185 
L 114.054223 78.539117 
L 114.136051 61.132944 
L 114.217878 61.257665 
L 114.299706 82.708944 
L 114.627016 44.212353 
L 114.708843 48.961622 
L 114.790671 51.905497 
L 114.872499 70.687351 
L 114.954326 69.606659 
L 115.036154 55.449689 
L 115.199809 89.522373 
L 115.608946 66.369449 
L 115.772601 82.693657 
L 115.854429 76.239839 
L 115.936256 81.996544 
L 116.018084 80.326985 
L 116.099912 73.718442 
L 116.181739 79.451891 
L 116.263567 66.708558 
L 116.345394 78.931203 
L 116.590877 61.956359 
L 116.672704 71.607935 
L 116.754532 70.762098 
L 116.918187 67.565247 
L 117.000014 61.28849 
L 117.245497 78.611013 
L 117.327325 77.665835 
L 117.409152 71.323161 
L 117.49098 82.728896 
L 117.654635 64.660643 
L 117.81829 77.994788 
L 117.900117 67.801191 
L 118.063772 77.086219 
L 118.227427 81.898573 
L 118.309255 78.195808 
L 118.391083 68.552971 
L 118.47291 69.485504 
L 118.554738 72.325669 
L 118.718393 91.109327 
L 118.80022 78.553888 
L 118.882048 87.76609 
L 118.963875 85.196438 
L 119.045703 72.711117 
L 119.209358 89.533003 
L 119.373013 61.955653 
L 119.45484 70.898513 
L 119.536668 65.195534 
L 119.618496 66.875134 
L 119.700323 80.420275 
L 119.782151 72.34888 
L 119.863978 72.375715 
L 119.945806 74.285372 
L 120.109461 86.357465 
L 120.273116 82.046791 
L 120.354943 55.306197 
L 120.436771 57.886842 
L 120.518598 64.873821 
L 120.600426 56.91917 
L 120.682253 58.032058 
L 120.764081 68.059655 
L 120.845909 64.072597 
L 120.927736 79.058121 
L 121.009564 70.07313 
L 121.091391 77.872291 
L 121.173219 68.883013 
L 121.255046 79.509653 
L 121.336874 63.044418 
L 121.500529 71.236878 
L 121.582356 66.032035 
L 121.827839 79.483875 
L 121.909667 76.772076 
L 121.991494 69.092203 
L 122.073322 71.728993 
L 122.155149 72.172265 
L 122.318804 61.405829 
L 122.482459 71.827052 
L 122.564287 55.035332 
L 122.727942 74.531278 
L 122.809769 62.218578 
L 122.891597 63.370058 
L 122.973424 60.145001 
L 123.055252 63.952198 
L 123.13708 50.375692 
L 123.218907 56.257855 
L 123.300735 55.368136 
L 123.382562 51.395582 
L 123.46439 39.966409 
L 123.546217 62.682167 
L 123.628045 38.305917 
L 123.709872 48.225584 
L 123.873527 43.433364 
L 123.955355 42.668181 
L 124.037182 47.028063 
L 124.11901 43.40122 
L 124.200837 54.856308 
L 124.282665 34.039169 
L 124.44632 45.773011 
L 124.609975 44.341841 
L 124.691803 48.197871 
L 124.77363 67.660132 
L 124.855458 46.194976 
L 124.937285 49.505815 
L 125.019113 60.546106 
L 125.10094 58.001689 
L 125.182768 61.918624 
L 125.264595 50.618255 
L 125.591906 69.5306 
L 125.755561 65.100302 
L 125.837388 54.367475 
L 126.001043 67.111511 
L 126.164698 38.583181 
L 126.328353 51.026852 
L 126.410181 41.77046 
L 126.492008 63.009344 
L 126.573836 56.838135 
L 126.655664 63.828644 
L 126.737491 60.799531 
L 126.819319 52.464508 
L 126.901146 62.934307 
L 126.982974 39.255372 
L 127.064801 51.384396 
L 127.146629 43.70597 
L 127.228456 56.488037 
L 127.310284 42.536284 
L 127.392111 63.709509 
L 127.555766 42.013704 
L 127.637594 45.272984 
L 127.719421 41.27972 
L 127.801249 45.7921 
L 127.883077 39.745578 
L 127.964904 57.958587 
L 128.046732 51.901835 
L 128.210387 44.924484 
L 128.292214 60.074366 
L 128.374042 54.284737 
L 128.537697 78.36625 
L 128.701352 48.957717 
L 128.783179 48.675924 
L 129.11049 74.667509 
L 129.274145 65.81307 
L 129.355972 70.346953 
L 129.601455 61.659322 
L 129.683282 71.711118 
L 129.928765 53.337186 
L 130.010592 56.197981 
L 130.09242 41.03358 
L 130.174248 58.923053 
L 130.337903 49.048897 
L 130.583385 62.440666 
L 130.665213 58.564286 
L 130.74704 71.363025 
L 130.828868 68.158406 
L 130.992523 59.318776 
L 131.07435 63.534529 
L 131.156178 56.03546 
L 131.238005 60.479444 
L 131.401661 46.328036 
L 131.483488 57.733923 
L 131.647143 45.057387 
L 131.728971 46.170901 
L 131.810798 58.406833 
L 131.974453 43.057291 
L 132.056281 44.669835 
L 132.138108 51.662805 
L 132.219936 41.478983 
L 132.301763 63.440067 
L 132.383591 47.929149 
L 132.465418 52.706737 
L 132.547246 63.714994 
L 132.629074 60.528093 
L 132.710901 61.263695 
L 132.792729 53.722892 
L 132.874556 59.785959 
L 133.038211 50.712628 
L 133.120039 67.086277 
L 133.365521 46.326549 
L 133.447349 46.705392 
L 133.529176 55.433107 
L 133.611004 46.407961 
L 133.774659 55.522162 
L 133.856487 46.728289 
L 133.938314 58.203147 
L 134.101969 39.024198 
L 134.183797 43.465213 
L 134.511107 23.903598 
L 134.756589 50.167628 
L 134.838417 50.092103 
L 134.920245 57.852795 
L 135.0839 46.28186 
L 135.247555 59.42592 
L 135.329382 46.917461 
L 135.41121 49.625069 
L 135.493037 56.485211 
L 135.73852 40.497274 
L 135.902175 71.05223 
L 135.984002 51.87323 
L 136.147658 75.596487 
L 136.229485 73.615071 
L 136.474968 59.809371 
L 136.556795 63.862052 
L 136.638623 60.142827 
L 136.72045 61.599565 
L 136.802278 51.1178 
L 136.884105 54.252535 
L 136.965933 54.940101 
L 137.129588 60.800693 
L 137.211416 52.301247 
L 137.375071 61.56471 
L 137.456898 49.874729 
L 137.538726 59.438342 
L 137.620553 52.522796 
L 137.866036 77.396266 
L 137.947863 61.784889 
L 138.111518 80.534574 
L 138.193346 76.164746 
L 138.357001 87.714691 
L 138.438829 57.780617 
L 138.602484 75.441544 
L 138.684311 67.381242 
L 138.766139 74.95936 
L 138.847966 69.620243 
L 139.093449 79.014487 
L 139.175276 67.112509 
L 139.257104 79.325736 
L 139.338931 76.710281 
L 139.502586 59.739034 
L 139.584414 72.853908 
L 139.666242 59.850944 
L 139.748069 62.561186 
L 139.911724 66.78884 
L 139.993552 67.016938 
L 140.157207 80.040712 
L 140.402689 60.351628 
L 140.484517 74.65346 
L 140.73 47.639881 
L 140.811827 64.32582 
L 140.893655 52.495257 
L 140.975482 60.720774 
L 141.139137 41.279257 
L 141.220965 46.88928 
L 141.302792 30.865857 
L 141.38462 35.545823 
L 141.466447 32.063687 
L 141.548275 54.891609 
L 141.630102 40.951038 
L 141.793757 54.435233 
L 141.875585 46.051311 
L 141.957413 49.249202 
L 142.121068 32.842704 
L 142.202895 38.090744 
L 142.284723 28.938014 
L 142.448378 36.735655 
L 142.530205 31.985684 
L 142.69386 51.128092 
L 142.857515 27.350036 
L 142.939343 33.141279 
L 143.102998 60.412011 
L 143.266653 47.640846 
L 143.348481 45.205934 
L 143.512136 55.480752 
L 143.593963 53.865619 
L 143.675791 47.298486 
L 144.003101 69.594056 
L 144.166756 49.019719 
L 144.248584 43.864895 
L 144.330411 45.912001 
L 144.412239 40.301457 
L 144.494066 40.552534 
L 144.575894 51.530728 
L 144.657721 39.613248 
L 144.985031 69.33504 
L 145.148686 52.434676 
L 145.230514 57.24247 
L 145.312341 51.172421 
L 145.394169 55.705144 
L 145.475997 41.444168 
L 145.639652 61.906161 
L 145.803307 49.880575 
L 145.885134 56.408213 
L 145.966962 51.343437 
L 146.048789 37.701973 
L 146.130617 56.004919 
L 146.212444 40.526891 
L 146.294272 45.426701 
L 146.376099 43.883594 
L 146.457927 53.295759 
L 146.539754 38.349754 
L 146.621582 66.074273 
L 146.70341 59.67805 
L 146.785237 59.821675 
L 146.867065 67.880759 
L 147.03072 54.06613 
L 147.112547 57.42285 
L 147.276202 75.071532 
L 147.521685 49.950951 
L 147.68534 63.212365 
L 147.767167 52.161044 
L 147.848995 53.000689 
L 147.930823 50.291519 
L 148.094478 56.97703 
L 148.258133 51.927769 
L 148.33996 71.266168 
L 148.421788 55.675501 
L 148.503615 58.892244 
L 148.585443 70.594651 
L 148.749098 54.271019 
L 148.830925 57.04332 
L 148.912753 65.483471 
L 149.076408 48.383033 
L 149.158236 39.688587 
L 149.240063 48.948203 
L 149.321891 36.136019 
L 149.567373 61.480363 
L 149.731028 69.31902 
L 149.812856 69.44482 
L 149.894683 48.02218 
L 149.976511 48.096698 
L 150.058338 50.746672 
L 150.140166 21.443192 
L 150.221994 48.177305 
L 150.303821 44.932648 
L 150.385649 47.658428 
L 150.467476 41.868863 
L 150.549304 49.40901 
L 150.631131 49.266324 
L 150.712959 33.262131 
L 150.876614 51.539079 
L 150.958441 39.071827 
L 151.040269 54.287957 
L 151.203924 41.612094 
L 151.285751 48.114144 
L 151.367579 43.452613 
L 151.531234 60.087042 
L 151.694889 42.025264 
L 151.776717 61.153699 
L 151.858544 46.988231 
L 151.940372 61.41062 
L 152.022199 58.11567 
L 152.104027 70.386486 
L 152.185854 49.977362 
L 152.349509 76.677147 
L 152.594992 54.244394 
L 152.67682 58.127917 
L 152.758647 64.078271 
L 152.840475 60.777395 
L 152.922302 61.540208 
L 153.085957 38.136539 
L 153.249612 57.566176 
L 153.33144 61.692095 
L 153.413267 51.372699 
L 153.495095 67.144107 
L 153.576922 60.74641 
L 153.65875 69.097292 
L 153.822405 38.914271 
L 153.98606 60.543294 
L 154.067888 51.817022 
L 154.149715 70.628621 
L 154.31337 44.824607 
L 154.395198 48.359672 
L 154.558853 62.45881 
L 154.64068 51.716582 
L 154.722508 56.619709 
L 154.804335 40.66796 
L 154.967991 53.474779 
L 155.049818 54.789403 
L 155.131646 54.139904 
L 155.213473 60.1874 
L 155.295301 50.528686 
L 155.377128 55.473228 
L 155.458956 52.256161 
L 155.622611 56.897063 
L 155.704438 50.752367 
L 155.786266 63.405784 
L 155.868093 54.037532 
L 156.113576 68.309625 
L 156.195404 61.56185 
L 156.277231 67.314299 
L 156.359059 58.920061 
L 156.522714 71.655387 
L 156.686369 59.234255 
L 156.768196 62.447479 
L 156.850024 73.804558 
L 156.931851 60.041006 
L 157.095506 84.277261 
L 157.177334 54.388481 
L 157.259162 74.40204 
L 157.340989 71.489166 
L 157.750127 40.728556 
L 157.831954 52.077098 
L 157.913782 46.284862 
L 158.077437 60.021555 
L 158.159264 57.502047 
L 158.404747 74.425541 
L 158.568402 55.509522 
L 158.65023 59.399998 
L 158.732057 51.769458 
L 158.895712 69.686604 
L 159.059367 52.789304 
L 159.223022 70.727496 
L 159.468505 45.320839 
L 159.550333 56.359722 
L 159.63216 46.532559 
L 159.713988 61.520023 
L 159.877643 47.344046 
L 160.041298 62.571638 
L 160.28678 38.447144 
L 160.368608 56.929702 
L 160.450435 44.862198 
L 160.532263 54.360356 
L 160.61409 51.301668 
L 160.695918 52.83717 
L 160.777746 65.010209 
L 160.859573 56.293711 
L 161.186883 81.869009 
L 161.268711 78.791332 
L 161.350538 76.037875 
L 161.432366 78.44845 
L 161.514193 63.247554 
L 161.596021 70.844099 
L 161.759676 64.291018 
L 161.841503 65.60335 
L 161.923331 64.162076 
L 162.005159 47.405832 
L 162.250641 71.310852 
L 162.332469 72.992534 
L 162.414296 77.883479 
L 162.496124 68.318567 
L 162.577951 69.691383 
L 162.659779 63.181796 
L 162.905261 100.051106 
L 162.987089 95.105744 
L 163.150744 92.1048 
L 163.232572 87.436326 
L 163.314399 89.298354 
L 163.396227 84.221272 
L 163.478054 69.360881 
L 163.559882 87.150798 
L 163.723537 71.701816 
L 163.805364 68.768387 
L 163.969019 74.490056 
L 164.050847 61.86168 
L 164.132674 74.938457 
L 164.214502 65.781038 
L 164.29633 76.331669 
L 164.378157 69.142537 
L 164.459985 75.041054 
L 164.541812 68.3052 
L 164.62364 87.992204 
L 164.787295 66.114231 
L 164.869122 75.442802 
L 164.95095 74.408751 
L 165.032777 66.433376 
L 165.114605 73.690986 
L 165.27826 58.690507 
L 165.360087 68.261691 
L 165.441915 68.061539 
L 165.523743 66.9689 
L 165.687398 69.560781 
L 165.769225 57.193458 
L 165.93288 70.655583 
L 166.014708 60.501011 
L 166.096535 61.746925 
L 166.26019 66.033448 
L 166.342018 73.304695 
L 166.505673 57.065452 
L 166.5875 67.508113 
L 166.669328 60.912783 
L 166.751156 74.535044 
L 166.914811 61.303938 
L 166.996638 66.267328 
L 167.078466 60.475486 
L 167.242121 74.788525 
L 167.323948 77.608258 
L 167.405776 70.367109 
L 167.569431 80.16306 
L 167.651258 72.770105 
L 167.733086 78.075615 
L 167.814914 70.992552 
L 167.896741 73.624939 
L 168.060396 60.886274 
L 168.224051 67.350908 
L 168.387706 71.020103 
L 168.469534 63.607175 
L 168.551361 75.498585 
L 168.633189 75.150643 
L 168.796844 91.753932 
L 168.878671 87.299484 
L 168.960499 89.98266 
L 169.042327 99.172123 
L 169.124154 86.929377 
L 169.205982 87.064687 
L 169.369637 89.040047 
L 169.451464 74.52768 
L 169.533292 82.328467 
L 169.615119 75.287763 
L 169.778774 84.737453 
L 169.860602 75.11163 
L 169.942429 80.127169 
L 170.433395 64.270307 
L 170.515222 59.185474 
L 170.59705 60.153495 
L 170.678877 66.407706 
L 170.842532 58.363574 
L 170.92436 61.962538 
L 171.006187 51.264109 
L 171.088015 53.007737 
L 171.169842 55.223018 
L 171.25167 66.587876 
L 171.497153 53.956042 
L 171.57898 34.008244 
L 171.660808 40.744563 
L 171.742635 38.813591 
L 171.90629 42.398258 
L 171.988118 35.035997 
L 172.069945 38.14062 
L 172.151773 58.642276 
L 172.397255 39.523935 
L 172.479083 38.867501 
L 172.560911 40.983277 
L 172.806393 29.43256 
L 173.051876 54.956102 
L 173.133703 46.122988 
L 173.215531 46.435515 
L 173.297358 48.368936 
L 173.379186 42.167624 
L 173.542841 57.932217 
L 173.624668 53.901605 
L 173.706496 54.694978 
L 173.788324 52.273001 
L 174.033806 68.356453 
L 174.115634 68.17056 
L 174.197461 68.6242 
L 174.279289 86.331758 
L 174.442944 57.741717 
L 174.770254 70.131182 
L 174.933909 63.25816 
L 175.015737 68.928883 
L 175.097564 63.385106 
L 175.179392 69.641827 
L 175.261219 67.283889 
L 175.343047 61.539208 
L 175.424874 71.361388 
L 175.588529 67.091116 
L 175.752184 68.391154 
L 175.834012 66.195274 
L 175.915839 74.236966 
L 175.997667 67.536734 
L 176.161322 75.958181 
L 176.24315 55.35782 
L 176.324977 65.621247 
L 176.406805 54.23019 
L 176.488632 58.739 
L 176.57046 54.383358 
L 176.652287 66.547848 
L 176.734115 65.80557 
L 176.815942 66.022955 
L 176.979597 48.778938 
L 177.061425 57.089334 
L 177.143252 55.902022 
L 177.388735 47.349225 
L 177.55239 57.708269 
L 177.716045 47.889695 
L 177.797873 44.841587 
L 177.8797 55.012986 
L 178.043355 41.553842 
L 178.125183 41.737153 
L 178.370665 69.513515 
L 178.616148 52.928226 
L 178.697976 58.65153 
L 178.779803 52.146444 
L 178.861631 64.382126 
L 178.943458 63.511051 
L 179.025286 58.010639 
L 179.107113 78.016246 
L 179.188941 61.46307 
L 179.270768 74.215922 
L 179.352596 53.018022 
L 179.434423 59.55294 
L 179.679906 52.572641 
L 179.761734 51.384196 
L 179.925389 61.742912 
L 180.007216 50.473413 
L 180.089044 56.011897 
L 180.170871 46.366844 
L 180.252699 62.348387 
L 180.498181 41.181073 
L 180.580009 41.622806 
L 180.825492 53.111043 
L 180.907319 48.793995 
L 180.989147 49.349932 
L 181.070974 49.822382 
L 181.152802 67.161639 
L 181.316457 48.105398 
L 181.398284 51.883033 
L 181.480112 49.781956 
L 181.561939 44.138028 
L 181.643767 46.056766 
L 181.725594 45.521336 
L 181.807422 39.51414 
L 181.889249 52.232998 
L 181.971077 50.651223 
L 182.21656 41.793669 
L 182.298387 65.845971 
L 182.380215 57.624984 
L 182.462042 54.480134 
L 182.54387 68.729585 
L 182.707525 45.710322 
L 182.789352 68.648694 
L 182.87118 53.553194 
L 183.116663 80.952723 
L 183.19849 72.789031 
L 183.280318 83.266382 
L 183.362145 70.324303 
L 183.443973 72.064823 
L 183.5258 69.605766 
L 183.607628 70.542418 
L 183.689455 62.572425 
L 183.771283 70.897826 
L 183.85311 69.113344 
L 184.016765 77.030422 
L 184.098593 55.725523 
L 184.18042 59.552746 
L 184.262248 63.499298 
L 184.344076 59.461826 
L 184.589558 73.554896 
L 184.671386 71.549676 
L 184.835041 80.475915 
L 184.998696 67.676292 
L 185.244178 86.631238 
L 185.407833 74.274955 
L 185.489661 76.168528 
L 185.735144 61.770449 
L 185.816971 62.30826 
L 185.898799 77.009665 
L 186.062454 65.177424 
L 186.144281 63.514716 
L 186.307936 44.915898 
L 186.471591 47.92388 
L 186.635247 32.024295 
L 186.717074 36.005149 
L 186.798902 49.853218 
L 186.880729 39.03694 
L 186.962557 42.417615 
L 187.044384 50.003751 
L 187.126212 67.978446 
L 187.289867 55.673234 
L 187.371694 61.789738 
L 187.453522 48.829466 
L 187.535349 57.734096 
L 187.617177 56.488089 
L 187.699004 57.472254 
L 187.780832 64.984053 
L 187.944487 59.988791 
L 188.026315 80.27108 
L 188.108142 76.260843 
L 188.18997 68.275021 
L 188.271797 71.832301 
L 188.51728 59.838118 
L 188.599107 76.622403 
L 188.762762 52.359166 
L 188.926417 64.171841 
L 189.090073 52.210075 
L 189.335555 56.470479 
L 189.417383 69.664173 
L 189.581038 45.412174 
L 189.744693 61.707822 
L 189.82652 57.690589 
L 189.908348 59.39554 
L 189.990175 54.772776 
L 190.072003 60.538056 
L 190.153831 56.094198 
L 190.399313 70.556828 
L 190.481141 65.98986 
L 190.562968 74.626155 
L 190.644796 65.938699 
L 190.726623 72.970992 
L 190.808451 66.342305 
L 190.890278 77.42365 
L 191.053933 63.972007 
L 191.135761 64.1486 
L 191.217588 65.614393 
L 191.299416 70.310418 
L 191.381244 51.670432 
L 191.463071 55.058623 
L 191.544899 55.652645 
L 191.626726 50.634141 
L 191.708554 58.220013 
L 191.872209 44.566265 
L 192.035864 61.493965 
L 192.117691 53.537016 
L 192.281346 59.227182 
L 192.445001 33.273067 
L 192.526829 53.235165 
L 192.608657 36.185746 
L 192.772312 45.802989 
L 192.935967 34.808518 
L 193.099622 54.299042 
L 193.181449 58.060422 
L 193.263277 56.880248 
L 193.345104 53.53966 
L 193.426932 43.144139 
L 193.590587 59.835572 
L 193.83607 34.6693 
L 194.081552 55.878512 
L 194.16338 56.650401 
L 194.245207 41.716603 
L 194.408862 60.914641 
L 194.49069 65.535483 
L 194.736172 51.3153 
L 194.899828 55.887716 
L 194.981655 42.921869 
L 195.063483 59.812306 
L 195.14531 36.839585 
L 195.227138 57.181145 
L 195.308965 40.494005 
L 195.47262 51.964649 
L 195.554448 42.02568 
L 195.636275 54.562747 
L 195.718103 44.704255 
L 195.79993 47.625197 
L 195.881758 46.81223 
L 195.963585 58.428647 
L 196.045413 54.562661 
L 196.127241 53.619318 
L 196.209068 47.950889 
L 196.290896 57.621206 
L 196.454551 47.527998 
L 196.536378 49.104737 
L 196.618206 41.993829 
L 196.781861 58.12135 
L 196.863688 43.173288 
L 197.027343 51.618641 
L 197.272826 37.433299 
L 197.354654 50.185696 
L 197.436481 32.823956 
L 197.518309 41.692659 
L 197.600136 38.67073 
L 197.681964 36.051533 
L 197.927446 75.799652 
L 198.172929 52.945391 
L 198.254756 52.026286 
L 198.418412 64.092472 
L 198.500239 42.290998 
L 198.582067 50.671015 
L 198.663894 50.481112 
L 198.745722 46.429299 
L 198.827549 53.59281 
L 198.909377 49.045637 
L 198.991204 62.578906 
L 199.154859 41.148083 
L 199.236687 42.96002 
L 199.318514 50.219557 
L 199.482169 30.367631 
L 199.727652 47.283789 
L 199.891307 35.384091 
L 200.054962 47.26348 
L 200.13679 28.59012 
L 200.218617 30.889029 
L 200.382272 71.384182 
L 200.4641 59.086534 
L 200.545927 53.176371 
L 200.627755 61.287852 
L 200.709582 59.98959 
L 200.79141 62.318907 
L 200.873238 60.226057 
L 200.955065 51.31353 
L 201.036893 60.721428 
L 201.282375 47.135726 
L 201.44603 80.152946 
L 201.77334 51.069014 
L 201.855168 57.960636 
L 201.936996 51.266776 
L 202.018823 52.962606 
L 202.100651 48.665556 
L 202.182478 49.799881 
L 202.264306 50.013685 
L 202.346133 36.690805 
L 202.427961 53.000872 
L 202.509788 49.889782 
L 202.591616 49.586013 
L 202.673443 58.074224 
L 202.837098 47.583921 
L 202.918926 62.664005 
L 203.000753 53.046524 
L 203.082581 59.714822 
L 203.164409 52.514991 
L 203.246236 52.799417 
L 203.328064 53.909766 
L 203.409891 44.948889 
L 203.491719 63.557665 
L 203.573546 61.221861 
L 203.655374 47.700374 
L 203.737201 62.510736 
L 203.819029 51.497323 
L 203.900856 56.35644 
L 203.982684 50.544384 
L 204.228166 74.636206 
L 204.309994 67.061744 
L 204.391822 70.041918 
L 204.719132 55.149929 
L 204.800959 54.633305 
L 204.964614 37.986894 
L 205.128269 52.369398 
L 205.291924 29.845727 
L 205.537407 57.684589 
L 205.78289 66.796434 
L 205.946545 51.078488 
L 206.028372 54.792618 
L 206.1102 54.535554 
L 206.192027 56.179616 
L 206.273855 46.378726 
L 206.355682 63.005809 
L 206.519337 52.096951 
L 206.601165 65.25605 
L 206.682993 51.639921 
L 206.76482 55.960434 
L 206.846648 55.785957 
L 206.928475 47.137878 
L 207.010303 53.906909 
L 207.09213 52.940846 
L 207.173958 51.492981 
L 207.255785 37.79799 
L 207.337613 41.790723 
L 207.583095 53.77412 
L 207.74675 44.208353 
L 207.828578 41.32055 
L 208.074061 50.384179 
L 208.155888 51.954085 
L 208.237716 35.787417 
L 208.319543 38.092511 
L 208.565026 58.13815 
L 208.646853 51.753569 
L 208.728681 58.472824 
L 208.810508 36.947918 
L 208.892336 54.909193 
L 208.974163 50.989973 
L 209.055991 43.759549 
L 209.137819 48.287201 
L 209.219646 45.992404 
L 209.301474 57.041788 
L 209.383301 52.215959 
L 209.465129 54.663873 
L 209.628784 69.335602 
L 209.710611 46.753268 
L 209.792439 51.838038 
L 209.956094 56.910537 
L 210.119749 42.920113 
L 210.365232 69.08516 
L 210.447059 67.578474 
L 210.528887 55.523813 
L 210.610714 81.899795 
L 210.692542 81.85445 
L 210.856197 63.418378 
L 210.938024 63.039464 
L 211.265334 49.599588 
L 211.42899 67.483646 
L 211.510817 59.50399 
L 211.592645 59.644571 
L 211.7563 54.338653 
L 211.838127 60.212294 
L 212.001782 44.800871 
L 212.08361 59.073269 
L 212.329092 33.860771 
L 212.41092 32.64317 
L 212.492747 37.145954 
L 212.574575 27.992197 
L 212.820058 46.978421 
L 212.901885 57.798457 
L 212.983713 56.628237 
L 213.147368 54.313704 
L 213.229195 68.139295 
L 213.311023 67.213584 
L 213.39285 50.787717 
L 213.474678 51.773987 
L 213.556505 63.188356 
L 213.638333 51.702312 
L 213.720161 51.958018 
L 213.801988 59.891945 
L 213.883816 55.902493 
L 214.129298 63.756753 
L 214.211126 51.00947 
L 214.292953 73.706362 
L 214.374781 73.167057 
L 214.456608 60.736051 
L 214.702091 77.756026 
L 214.783918 77.416066 
L 214.947574 61.624845 
L 215.193056 88.733236 
L 215.438539 66.339203 
L 215.520366 71.663899 
L 215.602194 61.180374 
L 215.765849 76.273108 
L 215.847676 45.405253 
L 215.929504 54.077252 
L 216.011331 54.739182 
L 216.093159 58.296873 
L 216.174987 72.466786 
L 216.256814 66.802916 
L 216.338642 78.794617 
L 216.584124 57.635329 
L 216.747779 70.85246 
L 217.075089 47.543462 
L 217.156917 60.456573 
L 217.320572 48.014811 
L 217.4024 58.747844 
L 217.484227 38.54361 
L 217.72971 56.494476 
L 217.893365 49.206154 
L 217.975192 69.159567 
L 218.05702 60.854502 
L 218.138847 71.624221 
L 218.220675 47.330902 
L 218.302502 52.898273 
L 218.38433 63.688934 
L 218.547985 51.15547 
L 218.629813 46.590405 
L 218.793468 54.2497 
L 218.957123 38.275606 
L 219.03895 51.591448 
L 219.120778 46.926085 
L 219.284433 34.430287 
L 219.36626 38.913275 
L 219.448088 55.14724 
L 219.529915 38.344644 
L 219.775398 77.948389 
L 219.939053 76.912427 
L 220.184536 45.607642 
L 220.348191 66.244961 
L 220.430018 64.144777 
L 220.511846 52.58268 
L 220.675501 63.040636 
L 220.757329 68.066386 
L 220.839156 54.901688 
L 220.920984 56.989506 
L 221.002811 64.020878 
L 221.248294 45.186017 
L 221.330121 47.229877 
L 221.411949 33.850397 
L 221.575604 63.455077 
L 221.739259 41.140545 
L 221.821086 58.564464 
L 221.902914 55.014798 
L 222.230224 77.341441 
L 222.312052 65.790991 
L 222.393879 66.118823 
L 222.475707 63.15565 
L 222.557534 63.332706 
L 222.639362 61.275166 
L 222.721189 72.161453 
L 222.803017 66.693592 
L 222.884844 67.997428 
L 222.966672 68.905981 
L 223.130327 55.953327 
L 223.212155 60.959508 
L 223.293982 59.339948 
L 223.457637 54.059632 
L 223.539465 59.018981 
L 223.621292 52.597489 
L 223.70312 56.369848 
L 223.784947 67.117153 
L 223.866775 66.197089 
L 223.948602 68.26283 
L 224.03043 63.692135 
L 224.112257 66.792164 
L 224.194085 74.463733 
L 224.439568 57.004324 
L 224.521395 69.331248 
L 224.603223 56.254197 
L 224.68505 67.014775 
L 224.848705 51.39944 
L 224.930533 56.929486 
L 225.094188 40.142148 
L 225.257843 57.110544 
L 225.33967 45.445357 
L 225.421498 51.425444 
L 225.503326 50.257369 
L 225.585153 54.947481 
L 225.666981 46.477056 
L 225.748808 69.267014 
L 225.830636 63.942256 
L 225.912463 47.65986 
L 225.994291 57.933023 
L 226.076118 49.331761 
L 226.157946 53.339955 
L 226.239773 63.665192 
L 226.321601 46.670344 
L 226.485256 59.446459 
L 226.567083 44.05177 
L 226.648911 67.68379 
L 226.730739 39.917759 
L 226.812566 49.600422 
L 226.894394 47.145722 
L 226.976221 34.433051 
L 227.058049 37.441345 
L 227.303531 49.465809 
L 227.385359 36.269631 
L 227.467186 54.243207 
L 227.549014 49.75249 
L 227.630841 49.860646 
L 227.712669 40.90429 
L 227.794496 48.289493 
L 227.876324 47.743685 
L 227.958152 48.35902 
L 228.039979 54.955585 
L 228.203634 39.370828 
L 228.285462 36.485912 
L 228.367289 49.84232 
L 228.449117 42.237054 
L 228.530944 59.262764 
L 228.612772 58.69226 
L 228.776427 50.298551 
L 228.858254 60.333014 
L 229.02191 40.832915 
L 229.103737 44.248873 
L 229.185565 39.601743 
L 229.267392 40.407456 
L 229.34922 46.341598 
L 229.431047 43.190808 
L 229.512875 56.416253 
L 229.594702 42.692668 
L 229.67653 46.835322 
L 229.840185 60.535068 
L 229.922012 58.056013 
L 230.00384 55.057023 
L 230.085667 67.297455 
L 230.167495 46.90311 
L 230.249323 58.784921 
L 230.33115 54.731594 
L 230.412978 55.111211 
L 230.576633 38.632429 
L 230.822115 54.385196 
L 230.903943 46.233092 
L 231.067598 57.116263 
L 231.149425 46.268459 
L 231.394908 63.691875 
L 231.558563 58.799299 
L 231.640391 62.595663 
L 231.722218 61.530379 
L 231.804046 61.897435 
L 231.885873 53.562401 
L 231.967701 57.88122 
L 232.049528 53.209127 
L 232.213183 71.271962 
L 232.376838 56.724092 
L 232.458666 58.808698 
L 232.704149 39.380674 
L 232.867804 46.43106 
L 232.949631 37.389609 
L 233.031459 45.558199 
L 233.113286 41.292594 
L 233.195114 50.670343 
L 233.276941 48.875993 
L 233.358769 41.465851 
L 233.522424 54.782891 
L 233.604251 50.79021 
L 233.686079 49.856585 
L 233.767907 60.975589 
L 233.931562 39.203319 
L 234.095217 46.377794 
L 234.177044 42.82478 
L 234.258872 48.461455 
L 234.422527 72.292271 
L 234.504354 70.450906 
L 234.586182 72.092156 
L 234.749837 56.844134 
L 234.913492 65.191817 
L 234.99532 54.310568 
L 235.077147 76.364449 
L 235.158975 54.699096 
L 235.240802 58.335925 
L 235.32263 57.860109 
L 235.486285 72.087328 
L 235.568112 65.562819 
L 235.64994 48.753568 
L 235.813595 68.75478 
L 235.895422 47.106612 
L 235.97725 49.099276 
L 236.059078 47.719463 
L 236.140905 53.280381 
L 236.222733 42.968757 
L 236.30456 62.190835 
L 236.386388 60.358771 
L 236.468215 55.657524 
L 236.63187 62.948779 
L 236.95918 43.765846 
L 237.041008 46.055741 
L 237.122835 57.980102 
L 237.204663 50.115741 
L 237.286491 53.80845 
L 237.450146 30.91629 
L 237.777456 39.908503 
L 238.022938 62.204149 
L 238.104766 45.930911 
L 238.186593 54.126996 
L 238.350248 40.027396 
L 238.513904 65.959341 
L 238.595731 57.208665 
L 238.677559 63.037565 
L 238.841214 50.185902 
L 238.923041 55.349193 
L 239.086696 38.318539 
L 239.168524 42.905904 
L 239.414006 61.05492 
L 239.577661 43.097032 
L 239.823144 51.746259 
L 239.904972 49.598433 
L 240.150454 61.354143 
L 240.232282 56.442269 
L 240.314109 43.846862 
L 240.395937 55.149754 
L 240.477764 41.159585 
L 240.559592 49.741411 
L 240.641419 42.830997 
L 240.723247 52.119555 
L 240.886902 41.893796 
L 240.96873 55.467503 
L 241.050557 35.486118 
L 241.214212 55.045823 
L 241.377867 61.021186 
L 241.541522 90.675437 
L 241.705177 69.156061 
L 241.787005 72.516163 
L 241.868832 80.515578 
L 241.95066 75.681545 
L 242.114315 88.539341 
L 242.196143 88.081191 
L 242.27797 86.491422 
L 242.441625 81.375665 
L 242.523453 82.096227 
L 242.60528 78.39802 
L 242.687108 85.756081 
L 242.850763 75.031007 
L 242.93259 91.865625 
L 243.014418 80.448896 
L 243.096245 81.51442 
L 243.178073 79.200961 
L 243.259901 82.340824 
L 243.341728 78.058437 
L 243.423556 84.346462 
L 243.505383 76.963857 
L 243.669038 83.35737 
L 243.750866 62.306101 
L 243.832693 67.237703 
L 243.914521 72.64909 
L 243.996348 71.163048 
L 244.160003 48.107704 
L 244.241831 52.550399 
L 244.323659 63.5923 
L 244.405486 44.322367 
L 244.487314 48.774328 
L 244.569141 55.330674 
L 244.650969 43.097866 
L 244.732796 65.847027 
L 244.814624 52.310879 
L 244.978279 77.056328 
L 245.141934 57.578941 
L 245.223761 67.168199 
L 245.387416 45.855874 
L 245.469244 59.612036 
L 245.551072 48.440032 
L 245.632899 49.191816 
L 245.714727 51.125152 
L 245.796554 50.897785 
L 245.960209 69.982016 
L 246.042037 66.48621 
L 246.123864 72.014355 
L 246.205692 66.991845 
L 246.287519 67.082312 
L 246.369347 67.723837 
L 246.451174 73.77441 
L 246.533002 61.617503 
L 246.614829 66.826316 
L 246.696657 64.143295 
L 246.778485 72.665567 
L 246.860312 72.384474 
L 246.94214 68.798461 
L 247.023967 69.836374 
L 247.105795 53.393207 
L 247.187622 65.951639 
L 247.26945 47.903824 
L 247.351277 64.6795 
L 247.433105 59.636111 
L 247.514932 69.301601 
L 247.59676 65.896749 
L 247.678587 65.152862 
L 247.760415 66.651063 
L 247.842243 62.531486 
L 247.92407 70.523265 
L 248.087725 55.745246 
L 248.169553 60.519381 
L 248.25138 58.339517 
L 248.333208 38.083843 
L 248.415035 58.367371 
L 248.496863 55.587991 
L 248.57869 55.058511 
L 248.660518 52.314573 
L 248.742345 54.399299 
L 248.824173 44.549476 
L 249.069656 65.838284 
L 249.233311 53.981654 
L 249.396966 62.043491 
L 249.560621 49.103057 
L 249.642448 58.418013 
L 249.724276 50.127031 
L 249.887931 77.343524 
L 249.969758 75.39464 
L 250.133413 52.581379 
L 250.215241 63.661648 
L 250.378896 47.115808 
L 250.542551 54.895419 
L 250.624379 49.835468 
L 250.706206 53.232793 
L 250.788034 43.255961 
L 250.869861 66.511602 
L 251.033516 43.403229 
L 251.197171 60.204872 
L 251.278999 50.290894 
L 251.360827 64.282395 
L 251.442654 61.572153 
L 251.606309 44.947648 
L 251.851792 77.112285 
L 251.933619 63.654142 
L 252.015447 64.826219 
L 252.097274 69.590647 
L 252.179102 61.008399 
L 252.260929 66.398131 
L 252.342757 64.315589 
L 252.506412 83.600454 
L 252.58824 80.614879 
L 252.751895 76.162311 
L 252.833722 87.294982 
L 252.91555 86.319284 
L 253.079205 64.738661 
L 253.161032 75.434921 
L 253.24286 68.186922 
L 253.324687 84.549141 
L 253.488342 49.679626 
L 253.57017 69.258991 
L 253.733825 59.645789 
L 253.89748 74.471986 
L 254.142963 44.493194 
L 254.306618 52.861341 
L 254.388445 48.870222 
L 254.470273 55.342377 
L 254.5521 54.85697 
L 254.633928 55.535389 
L 254.715755 38.715115 
L 254.797583 42.264934 
L 254.961238 50.606326 
L 255.043066 49.762717 
L 255.124893 47.376581 
L 255.206721 56.612665 
L 255.370376 51.497195 
L 255.452203 41.019167 
L 255.534031 57.247385 
L 255.615858 51.680296 
L 255.697686 61.372832 
L 255.779513 58.21336 
L 255.861341 39.648779 
L 255.943168 45.409017 
L 256.024996 58.788157 
L 256.106824 46.129326 
L 256.188651 54.05136 
L 256.270479 51.59515 
L 256.434134 46.345373 
L 256.515961 51.255432 
L 256.597789 48.972572 
L 256.679616 61.264228 
L 256.925099 48.052992 
L 257.006926 59.734322 
L 257.088754 44.21595 
L 257.170581 47.659481 
L 257.252409 54.137395 
L 257.334237 27.724048 
L 257.416064 37.174478 
L 257.579719 24.443861 
L 257.743374 56.389297 
L 257.825202 45.241747 
L 257.907029 55.680488 
L 257.988857 52.83314 
L 258.152512 59.103784 
L 258.234339 57.310932 
L 258.316167 65.977813 
L 258.397994 60.050308 
L 258.479822 72.031678 
L 258.56165 70.060123 
L 258.807132 55.382026 
L 258.88896 60.246563 
L 259.21627 41.258706 
L 259.298097 40.081712 
L 259.379925 32.562336 
L 259.461752 40.965931 
L 259.54358 37.998291 
L 259.625408 32.807059 
L 259.87089 66.624607 
L 260.034545 48.477894 
L 260.116373 48.712432 
L 260.280028 57.767302 
L 260.361855 48.875483 
L 260.443683 68.01663 
L 260.52551 61.979464 
L 260.607338 52.342763 
L 260.689165 56.914109 
L 260.770993 43.169784 
L 260.852821 43.867154 
L 260.934648 38.101234 
L 261.016476 38.660426 
L 261.098303 43.874784 
L 261.180131 34.363582 
L 261.261958 55.893923 
L 261.343786 44.576136 
L 261.425613 50.859684 
L 261.507441 39.248115 
L 261.589268 53.116752 
L 261.671096 39.277141 
L 261.834751 54.33829 
L 261.916578 45.316499 
L 262.080234 60.865515 
L 262.162061 51.777431 
L 262.489371 76.596274 
L 263.062164 40.464202 
L 263.225819 52.504597 
L 263.553129 37.93319 
L 263.634957 42.404634 
L 263.716784 35.808008 
L 263.798612 49.474784 
L 263.962267 30.443373 
L 264.044094 31.469551 
L 264.125922 37.58844 
L 264.207749 56.036761 
L 264.289577 52.716075 
L 264.371405 63.975791 
L 264.453232 53.438436 
L 264.53506 54.246384 
L 264.616887 48.687225 
L 264.780542 64.781151 
L 264.86237 64.813504 
L 264.944197 61.816375 
L 265.026025 68.028693 
L 265.107852 59.498711 
L 265.18968 63.496719 
L 265.271507 54.668316 
L 265.353335 65.587274 
L 265.435162 44.38683 
L 265.51699 61.508385 
L 265.598818 52.306555 
L 265.680645 54.87355 
L 266.007955 40.961177 
L 266.089783 41.073963 
L 266.253438 52.454284 
L 266.335265 40.98512 
L 266.49892 53.967147 
L 266.580748 46.830906 
L 266.662576 50.638367 
L 266.744403 69.894157 
L 266.908058 39.933639 
L 267.071713 72.57532 
L 267.153541 71.749371 
L 267.235368 67.209985 
L 267.399023 83.417829 
L 267.562678 61.033252 
L 267.644506 60.655883 
L 267.726333 63.592738 
L 267.808161 45.915561 
L 267.889989 46.610455 
L 267.971816 58.767151 
L 268.053644 57.306773 
L 268.217299 23.924714 
L 268.299126 32.679715 
L 268.380954 34.082447 
L 268.462781 32.305958 
L 268.544609 35.839907 
L 268.626436 47.560948 
L 268.708264 45.698133 
L 268.790091 25.678301 
L 268.871919 36.336038 
L 268.953746 25.903728 
L 269.117402 44.508772 
L 269.444712 30.576116 
L 269.526539 29.754449 
L 269.772022 61.276558 
L 269.853849 45.6334 
L 269.935677 57.627461 
L 270.017504 51.554308 
L 270.099332 67.94731 
L 270.181159 48.964298 
L 270.262987 49.530943 
L 270.50847 70.501003 
L 270.590297 60.676498 
L 270.672125 60.703968 
L 270.753952 71.468812 
L 270.83578 57.842277 
L 270.917607 62.705792 
L 270.999435 56.663521 
L 271.16309 76.888062 
L 271.244917 58.006347 
L 271.408573 70.475732 
L 271.572228 48.652677 
L 271.654055 59.572852 
L 271.81771 39.135024 
L 271.899538 54.026972 
L 271.981365 49.318647 
L 272.063193 48.124878 
L 272.14502 50.271644 
L 272.390503 67.765038 
L 272.47233 72.017339 
L 272.554158 67.356466 
L 272.635986 71.32443 
L 272.799641 66.084757 
L 272.881468 67.075566 
L 272.963296 66.861149 
L 273.045123 66.011094 
L 273.126951 45.992766 
L 273.208778 64.969332 
L 273.290606 46.644111 
L 273.372433 47.074092 
L 273.454261 54.217956 
L 273.536088 54.214322 
L 273.863399 41.809059 
L 273.945226 45.617896 
L 274.027054 43.147027 
L 274.108881 44.140563 
L 274.190709 59.375186 
L 274.354364 38.313161 
L 274.436191 49.56022 
L 274.518019 48.495201 
L 274.763501 55.714521 
L 274.845329 56.086708 
L 274.927157 43.750658 
L 275.008984 47.786217 
L 275.172639 60.065649 
L 275.254467 59.208286 
L 275.336294 64.113269 
L 275.418122 54.745283 
L 275.581777 64.741142 
L 275.909087 48.826396 
L 276.072742 56.795542 
L 276.15457 55.862347 
L 276.400052 87.186942 
L 276.48188 83.265257 
L 276.727362 55.009761 
L 276.80919 60.849996 
L 276.891017 54.342395 
L 276.972845 62.515803 
L 277.218327 26.277626 
L 277.300155 37.406128 
L 277.46381 42.081996 
L 277.627465 36.936195 
L 277.872948 53.098694 
L 277.954775 33.366333 
L 278.036603 40.660942 
L 278.11843 37.089246 
L 278.200258 24.289708 
L 278.282085 25.792777 
L 278.363913 28.012138 
L 278.445741 23.139025 
L 278.609396 29.540078 
L 278.691223 16.664162 
L 278.936706 40.967095 
L 279.018533 40.184791 
L 279.100361 40.495661 
L 279.182188 41.789026 
L 279.345843 66.256253 
L 279.427671 58.434383 
L 279.509498 56.879812 
L 279.591326 56.984965 
L 279.918636 69.801635 
L 280.000464 66.328128 
L 280.082291 49.698756 
L 280.327774 69.145047 
L 280.573256 52.202908 
L 280.655084 59.705349 
L 280.736911 54.484823 
L 280.818739 64.367171 
L 280.982394 54.624879 
L 281.064222 57.123882 
L 281.146049 65.987506 
L 281.309704 58.618999 
L 281.391532 46.649806 
L 281.473359 65.562256 
L 281.555187 49.359123 
L 281.718842 81.006182 
L 281.882497 58.904091 
L 281.964325 54.570048 
L 282.12798 62.779811 
L 282.209807 58.375129 
L 282.373462 62.590439 
L 282.45529 51.857109 
L 282.537117 53.135369 
L 282.700772 52.116608 
L 282.7826 58.611182 
L 283.028082 36.177141 
L 283.10991 34.176914 
L 283.191738 35.2626 
L 283.273565 40.598462 
L 283.355393 53.42372 
L 283.519048 43.883065 
L 283.600875 46.593488 
L 283.682703 45.584251 
L 283.928185 70.258512 
L 284.09184 54.754496 
L 284.255495 63.074064 
L 284.337323 49.157546 
L 284.419151 59.036526 
L 284.500978 45.22396 
L 284.664633 71.016019 
L 284.828288 36.586137 
L 284.910116 39.305276 
L 284.991943 59.402192 
L 285.073771 50.83024 
L 285.237426 56.158064 
L 285.482908 34.285929 
L 285.564736 38.128986 
L 285.810219 57.172184 
L 285.892046 40.612019 
L 285.973874 44.337231 
L 286.383011 64.37349 
L 286.464839 57.09165 
L 286.546666 67.165485 
L 286.628494 61.368824 
L 286.792149 77.049261 
L 286.955804 66.72518 
L 287.037632 68.839733 
L 287.364942 40.39112 
L 287.446769 47.815441 
L 287.528597 33.533894 
L 287.610424 35.372726 
L 287.692252 35.684388 
L 287.774079 35.021309 
L 287.855907 35.469019 
L 287.937735 46.367157 
L 288.019562 43.535203 
L 288.10139 43.174609 
L 288.183217 35.074685 
L 288.265045 53.343432 
L 288.346872 39.559404 
L 288.4287 41.763699 
L 288.510527 36.361221 
L 288.592355 50.499099 
L 288.674182 41.190604 
L 288.75601 44.389769 
L 288.837837 59.970583 
L 288.919665 59.221952 
L 289.001492 59.075283 
L 289.165148 50.14181 
L 289.246975 62.66278 
L 289.328803 44.265215 
L 289.41063 64.594165 
L 289.492458 60.301323 
L 289.574285 61.862999 
L 289.656113 49.029906 
L 289.73794 69.261477 
L 289.819768 68.335178 
L 289.901595 61.310201 
L 289.983423 69.932377 
L 290.06525 59.185583 
L 290.147078 61.216867 
L 290.228906 70.109215 
L 290.392561 57.97791 
L 290.474388 74.262033 
L 290.556216 65.461068 
L 290.719871 74.789589 
L 290.883526 62.063996 
L 290.965353 61.284072 
L 291.047181 54.311902 
L 291.210836 72.436823 
L 291.292663 66.277585 
L 291.374491 75.638404 
L 291.538146 49.354979 
L 291.701801 62.031519 
L 291.783629 61.211328 
L 291.865456 65.128504 
L 291.947284 57.325145 
L 292.029111 64.239381 
L 292.192766 52.309071 
L 292.274594 56.66343 
L 292.356421 48.904747 
L 292.438249 50.104099 
L 292.765559 65.579907 
L 292.847387 55.213212 
L 293.011042 69.943831 
L 293.256524 50.153705 
L 293.338352 58.893802 
L 293.420179 53.619828 
L 293.665662 75.22667 
L 293.74749 67.52423 
L 293.911145 84.059628 
L 293.992972 70.824143 
L 294.0748 84.49216 
L 294.156627 80.056493 
L 294.238455 82.695451 
L 294.320282 77.496598 
L 294.40211 87.092256 
L 294.483937 80.703201 
L 294.565765 91.096593 
L 294.647592 81.086301 
L 294.72942 89.926318 
L 294.811247 80.507901 
L 294.893075 83.432569 
L 294.974903 76.947661 
L 295.05673 88.885217 
L 295.138558 78.661486 
L 295.220385 80.818755 
L 295.38404 68.827721 
L 295.465868 70.162843 
L 295.547695 72.456062 
L 295.629523 78.672288 
L 295.793178 57.705885 
L 295.875005 58.417942 
L 296.03866 41.801612 
L 296.120488 50.279403 
L 296.202316 42.093529 
L 296.284143 44.580635 
L 296.365971 42.254984 
L 296.447798 52.159275 
L 296.611453 27.632586 
L 296.938763 62.500167 
L 297.020591 46.375286 
L 297.102418 48.921589 
L 297.184246 45.422736 
L 297.266074 47.858842 
L 297.347901 40.920208 
L 297.511556 56.492311 
L 297.675211 50.48321 
L 297.757039 64.537964 
L 298.002521 39.225853 
L 298.084349 34.585215 
L 298.166176 49.510564 
L 298.248004 38.096193 
L 298.329831 54.698942 
L 298.493487 40.23992 
L 298.575314 41.970397 
L 298.657142 31.431971 
L 298.820797 63.952505 
L 298.902624 50.180503 
L 298.984452 56.007085 
L 299.066279 48.151687 
L 299.148107 67.873941 
L 299.229934 62.055559 
L 299.311762 79.363423 
L 299.393589 77.079964 
L 299.7209 45.103453 
L 299.884555 54.704515 
L 299.966382 47.848033 
L 300.04821 49.486227 
L 300.130037 54.733382 
L 300.211865 45.449313 
L 300.457347 64.2036 
L 300.539175 55.468956 
L 300.621002 62.620745 
L 300.784657 51.329005 
L 300.948313 83.347822 
L 301.111968 53.09879 
L 301.193795 58.977773 
L 301.275623 52.19522 
L 301.35745 69.512885 
L 301.439278 66.240444 
L 301.521105 68.491889 
L 301.602933 77.40435 
L 301.848415 56.678262 
L 302.012071 58.961893 
L 302.175726 70.860842 
L 302.257553 68.311477 
L 302.339381 51.130962 
L 302.421208 53.465664 
L 302.503036 51.468482 
L 302.666691 65.312195 
L 302.748518 59.590669 
L 302.830346 77.808879 
L 302.912173 76.509781 
L 302.994001 82.257762 
L 303.075828 66.292454 
L 303.157656 71.446834 
L 303.239484 75.498595 
L 303.403139 61.36232 
L 303.484966 79.386662 
L 303.566794 52.864678 
L 303.648621 70.258434 
L 303.894104 51.775414 
L 303.975931 53.801137 
L 304.057759 48.750042 
L 304.385069 72.851908 
L 304.548724 54.20141 
L 304.630552 61.915372 
L 304.794207 50.971593 
L 304.876034 69.051924 
L 305.039689 49.946031 
L 305.121517 57.990265 
L 305.203344 54.45774 
L 305.285172 61.829502 
L 305.366999 54.677951 
L 305.448827 60.07892 
L 305.612482 47.892722 
L 305.69431 52.617514 
L 305.776137 50.131636 
L 305.857965 40.989648 
L 306.103447 68.613449 
L 306.34893 52.791563 
L 306.512585 74.385328 
L 306.67624 60.149902 
L 306.839895 53.531398 
L 306.921723 54.704195 
L 307.00355 66.329722 
L 307.085378 59.454631 
L 307.167205 72.141543 
L 307.249033 66.431824 
L 307.33086 69.749496 
L 307.412688 62.054924 
L 307.494515 66.038911 
L 307.65817 58.955508 
L 307.821825 68.353214 
L 307.903653 63.365613 
L 307.985481 65.296348 
L 308.067308 62.735663 
L 308.149136 66.688197 
L 308.230963 52.312768 
L 308.312791 58.259126 
L 308.394618 53.348217 
L 308.558273 65.87424 
L 308.640101 73.319285 
L 308.803756 48.586739 
L 308.885583 64.965742 
L 308.967411 59.028463 
L 309.294721 82.058059 
L 309.376549 71.59623 
L 309.458376 81.990735 
L 309.540204 63.678488 
L 309.703859 81.819752 
L 309.867514 78.20718 
L 309.949341 80.511035 
L 310.031169 94.310067 
L 310.112996 77.229085 
L 310.358479 100.407531 
L 310.440307 80.385096 
L 310.603962 101.317205 
L 310.849444 83.222973 
L 310.931272 82.870666 
L 311.013099 81.33673 
L 311.094927 96.478388 
L 311.176754 76.595575 
L 311.258582 91.348178 
L 311.504065 65.895781 
L 311.585892 64.309111 
L 311.749547 84.735983 
L 311.913202 73.112931 
L 312.076857 87.201997 
L 312.32234 73.301011 
L 312.404167 57.104632 
L 312.485995 73.648492 
L 312.731478 49.497628 
L 312.813305 41.090609 
L 312.895133 52.500944 
L 313.058788 36.255573 
L 313.140615 41.696454 
L 313.222443 64.968149 
L 313.30427 63.240936 
L 313.386098 50.344836 
L 313.467925 54.374416 
L 313.63158 57.57465 
L 313.877063 82.304996 
L 314.040718 52.716275 
L 314.122546 53.567816 
L 314.286201 53.770645 
L 314.449856 63.816305 
L 314.613511 34.338174 
L 314.695338 34.846296 
L 314.858993 56.95529 
L 314.940821 55.107328 
L 315.022649 45.509555 
L 315.268131 58.815 
L 315.349959 60.522491 
L 315.431786 57.335602 
L 315.595441 71.784224 
L 315.677269 57.202496 
L 315.759096 60.315546 
L 315.840924 52.329145 
L 315.922751 55.376829 
L 316.004579 53.311643 
L 316.086406 43.817763 
L 316.168234 46.673665 
L 316.250062 63.429513 
L 316.495544 40.264583 
L 316.577372 59.091559 
L 316.822854 40.416552 
L 316.986509 54.045962 
L 317.150164 43.560429 
L 317.231992 55.358996 
L 317.31382 54.57762 
L 317.395647 57.891096 
L 317.477475 47.159567 
L 317.559302 56.090586 
L 317.64113 44.929872 
L 317.804785 69.342966 
L 317.96844 42.33624 
L 318.050267 47.766765 
L 318.132095 56.822852 
L 318.213922 48.082558 
L 318.29575 65.122138 
L 318.62306 32.872748 
L 318.704888 43.990438 
L 318.786715 21.595662 
L 318.95037 49.723101 
L 319.114025 41.350924 
L 319.195853 59.865793 
L 319.27768 57.762981 
L 319.359508 60.021244 
L 319.441335 54.260988 
L 319.523163 65.284849 
L 319.60499 62.827277 
L 319.686818 51.894579 
L 319.768646 56.94515 
L 319.850473 52.281559 
L 320.014128 70.717138 
L 320.177783 63.417463 
L 320.259611 70.897163 
L 320.341438 58.740502 
L 320.423266 62.719288 
L 320.586921 56.516669 
L 320.668748 58.260071 
L 320.914231 51.626458 
L 320.996059 38.805858 
L 321.159714 58.76099 
L 321.241541 61.289653 
L 321.323369 56.523208 
L 321.405196 75.469217 
L 321.487024 48.811099 
L 321.568851 72.026948 
L 321.814334 47.700311 
L 322.059817 34.143169 
L 322.141644 38.615708 
L 322.305299 29.064616 
L 322.550782 74.663677 
L 322.714437 64.423011 
L 322.796264 73.514319 
L 322.878092 55.320376 
L 322.959919 57.439915 
L 323.123574 65.907407 
L 323.205402 59.396708 
L 323.28723 64.27966 
L 323.369057 57.966109 
L 323.450885 61.146146 
L 323.696367 44.130464 
L 323.860022 55.941178 
L 323.94185 52.164342 
L 324.023677 52.461558 
L 324.350988 66.676215 
L 324.432815 66.536236 
L 324.678298 56.679348 
L 324.760125 70.849935 
L 324.841953 68.047701 
L 324.92378 67.953171 
L 325.005608 70.330454 
L 325.087435 50.61731 
L 325.169263 60.931594 
L 325.25109 59.929155 
L 325.332918 60.892086 
L 325.496573 52.385658 
L 325.578401 63.67284 
L 325.660228 60.129789 
L 325.823883 53.218135 
L 325.905711 55.27999 
L 325.987538 61.116021 
L 326.069366 55.549524 
L 326.233021 62.349114 
L 326.396676 64.496798 
L 326.723986 59.175002 
L 326.805814 62.3135 
L 326.969469 53.831921 
L 327.051296 55.139757 
L 327.133124 63.384695 
L 327.214951 61.981512 
L 327.296779 50.634563 
L 327.378606 72.662354 
L 327.542261 58.72859 
L 327.624089 55.973554 
L 327.787744 65.506332 
L 327.869572 46.829542 
L 327.951399 67.74699 
L 328.033227 63.283237 
L 328.278709 73.867236 
L 328.360537 72.417625 
L 328.442364 65.263391 
L 328.524192 65.501721 
L 328.687847 66.72457 
L 328.769674 81.441166 
L 328.933329 62.013366 
L 329.015157 76.58109 
L 329.178812 53.731288 
L 329.26064 59.085308 
L 329.424295 56.241482 
L 329.506122 60.947521 
L 329.58795 58.481138 
L 329.669777 70.916932 
L 329.751605 49.488381 
L 329.833432 55.324486 
L 329.91526 55.288983 
L 330.078915 46.185026 
L 330.406225 71.214878 
L 330.56988 62.729406 
L 330.651708 64.799387 
L 330.733535 73.564689 
L 330.979018 56.36554 
L 331.060845 67.272275 
L 331.2245 59.223102 
L 331.306328 65.506673 
L 331.388155 60.095687 
L 331.469983 70.082613 
L 331.551811 56.068269 
L 331.633638 77.946998 
L 331.797293 66.805242 
L 331.879121 63.907539 
L 331.960948 69.298884 
L 332.042776 61.104968 
L 332.288258 74.821365 
L 332.370086 58.625187 
L 332.451913 59.734006 
L 332.533741 57.40208 
L 332.615569 64.879143 
L 332.697396 64.419052 
L 332.779224 62.767684 
L 332.861051 46.102677 
L 333.024706 64.35757 
L 333.188361 81.830184 
L 333.352016 58.932075 
L 333.433844 64.008321 
L 333.597499 44.253939 
L 333.679326 50.675781 
L 333.761154 48.609604 
L 333.842982 37.041108 
L 334.006637 42.83522 
L 334.088464 39.530843 
L 334.170292 29.529632 
L 334.415774 60.411463 
L 334.497602 51.951701 
L 334.579429 57.113465 
L 334.661257 78.317477 
L 334.743084 52.682897 
L 334.988567 69.65618 
L 335.070395 57.964747 
L 335.315877 88.780105 
L 335.397705 68.058165 
L 335.479532 68.781488 
L 335.56136 78.853009 
L 335.806842 67.065327 
L 335.88867 66.322103 
L 335.970497 70.634771 
L 336.134153 61.712929 
L 336.297808 75.146007 
L 336.379635 75.100872 
L 336.461463 77.311671 
L 336.54329 83.88846 
L 336.8706 66.05917 
L 336.952428 68.722873 
L 337.034255 63.890748 
L 337.116083 64.676232 
L 337.279738 98.719052 
L 337.443393 71.204688 
L 337.525221 78.448107 
L 337.607048 64.863096 
L 337.688876 80.752307 
L 337.852531 55.752497 
L 337.934358 57.700519 
L 338.016186 68.512924 
L 338.179841 58.010781 
L 338.261668 54.13675 
L 338.343496 62.595573 
L 338.507151 55.734062 
L 338.588979 55.345819 
L 338.670806 64.235706 
L 338.834461 49.956269 
L 338.916289 64.322563 
L 338.998116 53.983882 
L 339.079944 54.171658 
L 339.161771 47.631737 
L 339.325426 65.346963 
L 339.407254 65.112032 
L 339.489081 64.274129 
L 339.570909 69.779033 
L 339.652737 61.036025 
L 339.734564 68.158863 
L 339.898219 47.647493 
L 340.061874 68.782636 
L 340.225529 51.277253 
L 340.389184 54.571361 
L 340.471012 64.523331 
L 340.552839 62.236996 
L 340.634667 55.294467 
L 340.798322 67.578987 
L 340.88015 65.374559 
L 340.961977 56.997983 
L 341.043805 65.714296 
L 341.125632 45.729629 
L 341.20746 50.45662 
L 341.452942 38.931712 
L 341.53477 47.060374 
L 341.698425 22.667194 
L 341.86208 36.078907 
L 341.943907 35.803335 
L 342.107563 50.228109 
L 342.5167 65.200313 
L 342.762183 51.150989 
L 342.84401 52.734196 
L 342.925838 56.55026 
L 343.007665 33.123705 
L 343.089493 42.248514 
L 343.171321 32.739811 
L 343.334976 58.023731 
L 343.498631 63.706827 
L 343.580458 51.304474 
L 343.662286 56.240386 
L 343.825941 47.39322 
L 343.907768 69.137351 
L 343.989596 68.552207 
L 344.071423 65.754574 
L 344.316906 82.654019 
L 344.398734 80.83329 
L 344.480561 85.986948 
L 345.053354 50.403166 
L 345.135181 53.997031 
L 345.217009 66.776674 
L 345.298836 44.151042 
L 345.380664 52.506514 
L 345.462491 44.226455 
L 345.544319 45.679521 
L 345.626147 52.218026 
L 345.707974 45.317953 
L 345.789802 52.638552 
L 345.871629 41.389816 
L 345.953457 71.820385 
L 346.035284 58.889484 
L 346.117112 70.742561 
L 346.198939 67.305109 
L 346.280767 59.505674 
L 346.362594 68.29219 
L 346.526249 60.509009 
L 346.608077 59.021839 
L 346.689904 60.239442 
L 346.85356 72.770536 
L 346.935387 72.525343 
L 347.590007 34.642344 
L 347.753662 54.609406 
L 347.83549 49.974764 
L 347.917318 55.740648 
L 347.999145 53.63848 
L 348.080973 56.792663 
L 348.1628 54.549265 
L 348.326455 73.143495 
L 348.408283 54.396319 
L 348.49011 56.40351 
L 348.571938 60.719369 
L 348.653765 59.746993 
L 348.81742 63.756866 
L 348.899248 47.783028 
L 348.981075 56.962338 
L 349.062903 50.819978 
L 349.226558 67.414468 
L 349.308386 69.219865 
L 349.635696 45.905564 
L 349.717523 48.54892 
L 349.799351 56.74869 
L 349.881178 52.868682 
L 349.963006 59.206214 
L 350.044833 57.483466 
L 350.126661 61.076041 
L 350.208488 55.778649 
L 350.290316 57.333188 
L 350.372144 67.103188 
L 350.453971 64.431412 
L 350.699454 51.149204 
L 350.863109 65.698513 
L 350.944936 53.987153 
L 351.354074 86.24956 
L 351.599557 67.274268 
L 351.681384 81.745027 
L 351.763212 79.385236 
L 351.926867 66.97799 
L 352.008694 73.142266 
L 352.090522 70.570845 
L 352.172349 63.336302 
L 352.254177 69.866462 
L 352.336004 88.923989 
L 352.417832 78.962186 
L 352.499659 96.219072 
L 352.663315 70.917255 
L 352.745142 71.018424 
L 352.82697 78.801302 
L 352.908797 65.902533 
L 353.15428 82.882325 
L 353.236107 55.60079 
L 353.317935 61.933808 
L 353.48159 48.255517 
L 353.563417 51.049842 
L 353.727072 36.526399 
L 353.890728 26.921614 
L 353.972555 34.180561 
L 354.054383 29.717684 
L 354.218038 45.077402 
L 354.381693 41.576732 
L 354.46352 29.444424 
L 354.627175 43.701347 
L 354.709003 23.934997 
L 354.79083 36.234843 
L 354.872658 18.18171 
L 354.954486 53.436951 
L 355.036313 45.101365 
L 355.118141 47.701771 
L 355.199968 38.210331 
L 355.363623 60.208032 
L 355.445451 53.214639 
L 355.527278 57.890517 
L 355.609106 41.588546 
L 355.690933 44.485899 
L 355.854588 72.764601 
L 356.018243 71.337338 
L 356.263726 44.654761 
L 356.345554 59.36114 
L 356.427381 53.392735 
L 356.509209 32.527704 
L 356.591036 52.197042 
L 356.672864 50.371551 
L 356.754691 39.751603 
L 356.836519 61.133673 
L 357.082001 25.719883 
L 357.409312 62.441115 
L 357.572967 52.297267 
L 357.654794 54.91765 
L 357.736622 50.739169 
L 357.818449 55.516533 
L 357.900277 51.118339 
L 357.982104 66.278884 
L 358.063932 64.250237 
L 358.145759 58.088444 
L 358.227587 58.562461 
L 358.309414 60.655803 
L 358.391242 46.409886 
L 358.47307 55.149116 
L 358.554897 48.332584 
L 358.636725 50.040481 
L 358.964035 59.847744 
L 359.045862 55.047101 
L 359.12769 57.559609 
L 359.209517 39.884895 
L 359.291345 43.647762 
L 359.455 60.273851 
L 359.536827 45.988319 
L 359.618655 63.399182 
L 359.78231 42.996763 
L 359.945965 62.444638 
L 360.027793 44.691731 
L 360.10962 59.819549 
L 360.191448 58.656405 
L 360.273275 41.480444 
L 360.355103 62.62981 
L 360.43693 48.472357 
L 360.518758 56.935727 
L 360.682413 43.114741 
L 360.846068 34.138002 
L 360.927896 55.903985 
L 361.009723 53.774223 
L 361.091551 56.563423 
L 361.173378 77.545301 
L 361.255206 71.397774 
L 361.337033 79.517902 
L 361.418861 71.629205 
L 361.500688 80.895684 
L 361.582516 69.396988 
L 361.664343 81.731944 
L 361.746171 66.801891 
L 361.827998 78.949242 
L 361.909826 71.672142 
L 361.991653 86.052915 
L 362.155309 67.37632 
L 362.237136 66.560607 
L 362.318964 67.147525 
L 362.400791 59.658124 
L 362.482619 76.679122 
L 362.646274 60.648305 
L 362.809929 82.229434 
L 362.891756 79.632962 
L 362.973584 86.089071 
L 363.219067 52.196381 
L 363.300894 49.261457 
L 363.382722 53.690534 
L 363.464549 73.586611 
L 363.710032 55.182206 
L 363.873687 64.823895 
L 364.037342 54.693098 
L 364.119169 72.929204 
L 364.200997 68.107486 
L 364.282824 52.361336 
L 364.364652 62.308189 
L 364.44648 61.091303 
L 364.691962 65.160451 
L 364.77379 58.841784 
L 364.937445 65.782784 
L 365.019272 51.449016 
L 365.182927 71.773894 
L 365.264755 60.556549 
L 365.346582 66.474966 
L 365.42841 59.010076 
L 365.510237 65.399171 
L 365.673893 55.64048 
L 366.001203 60.923756 
L 366.08303 49.421421 
L 366.246685 62.887871 
L 366.328513 49.690773 
L 366.41034 51.924686 
L 366.492168 53.858879 
L 366.573995 49.531886 
L 366.737651 61.835252 
L 366.819478 41.094534 
L 366.983133 59.962868 
L 367.146788 46.764869 
L 367.228616 49.356078 
L 367.310443 48.334954 
L 367.392271 39.018339 
L 367.637753 74.002811 
L 367.719581 75.555405 
L 367.801408 89.109025 
L 367.883236 86.792229 
L 368.046891 77.311049 
L 368.128719 50.436736 
L 368.210546 71.931214 
L 368.292374 70.238675 
L 368.456029 56.258202 
L 368.537856 64.228159 
L 368.619684 62.880395 
L 368.701511 62.083361 
L 368.783339 58.114493 
L 368.865166 59.5476 
L 368.946994 58.540617 
L 369.028821 63.540821 
L 369.274304 45.913763 
L 369.356132 36.956446 
L 369.519787 49.862553 
L 369.601614 46.832565 
L 369.683442 59.627956 
L 369.765269 42.999392 
L 369.928924 58.314056 
L 370.174407 52.659955 
L 370.338062 73.315807 
L 370.41989 69.411739 
L 370.501717 67.539888 
L 370.583545 68.539663 
L 370.665372 59.389588 
L 370.829027 95.617322 
L 370.992682 73.28395 
L 371.07451 76.38373 
L 371.156337 78.638961 
L 371.238165 62.045624 
L 371.319992 68.239035 
L 371.483648 62.301199 
L 371.565475 74.158543 
L 371.647303 58.211427 
L 371.72913 61.666794 
L 371.810958 63.877727 
L 371.892785 59.199603 
L 371.974613 42.579648 
L 372.05644 44.151288 
L 372.138268 47.848771 
L 372.301923 32.587928 
L 372.38375 24.01821 
L 372.465578 42.766386 
L 372.547405 32.654538 
L 372.629233 37.726897 
L 372.711061 36.133532 
L 372.792888 36.251165 
L 372.956543 26.320154 
L 373.120198 32.019024 
L 373.365681 55.655337 
L 373.529336 69.670127 
L 373.611163 48.284911 
L 373.692991 49.811997 
L 373.774819 58.291212 
L 373.856646 55.195023 
L 373.938474 58.465898 
L 374.102129 50.974871 
L 374.347611 66.309514 
L 374.511266 73.365693 
L 374.593094 91.190071 
L 374.674921 83.69851 
L 374.756749 91.610851 
L 374.838576 85.900416 
L 374.920404 88.599256 
L 375.165887 80.984838 
L 375.247714 65.168469 
L 375.411369 85.557608 
L 375.493197 77.708932 
L 375.575024 87.669071 
L 375.656852 86.580737 
L 375.738679 87.749851 
L 375.820507 84.974788 
L 375.902334 76.727377 
L 376.065989 94.673391 
L 376.229645 67.340376 
L 376.311472 80.185196 
L 376.3933 69.398199 
L 376.475127 82.147433 
L 376.638782 69.733857 
L 376.72061 65.915517 
L 376.802437 80.610549 
L 376.884265 78.49727 
L 377.04792 73.175307 
L 377.211575 77.814078 
L 377.293402 71.163924 
L 377.37523 85.266005 
L 377.457058 84.789754 
L 377.620713 62.729468 
L 377.70254 71.967158 
L 377.784368 68.96562 
L 377.866195 61.347851 
L 378.02985 66.825796 
L 378.111678 54.572225 
L 378.193505 58.952391 
L 378.275333 57.960649 
L 378.35716 69.235784 
L 378.602643 40.904712 
L 378.684471 44.20964 
L 378.929953 61.76933 
L 379.093608 57.335216 
L 379.257263 59.506144 
L 379.339091 57.124407 
L 379.420918 58.781639 
L 379.502746 68.800146 
L 379.584573 62.299545 
L 379.666401 67.474003 
L 379.748229 55.900622 
L 379.830056 65.326969 
L 379.911884 49.52581 
L 379.993711 55.560608 
L 380.075539 47.105121 
L 380.321021 67.054675 
L 380.648331 46.938267 
L 380.730159 59.921732 
L 380.893814 50.453857 
L 380.975642 64.91937 
L 381.057469 52.446191 
L 381.221124 77.647194 
L 381.302952 67.912899 
L 381.466607 84.922486 
L 381.548434 60.694778 
L 381.630262 64.879136 
L 381.793917 53.866152 
L 381.875744 66.481192 
L 382.284882 42.163528 
L 382.36671 44.227461 
L 382.448537 51.474378 
L 382.530365 38.749034 
L 382.612192 44.671856 
L 382.69402 42.295694 
L 383.02133 49.042417 
L 383.266813 57.694298 
L 383.34864 59.848383 
L 383.430468 74.059785 
L 383.67595 48.708676 
L 383.757778 53.572811 
L 383.921433 44.766346 
L 384.00326 46.022006 
L 384.166915 57.933359 
L 384.248743 52.553917 
L 384.33057 66.316251 
L 384.412398 48.535483 
L 384.494226 49.93237 
L 384.576053 50.827665 
L 384.657881 45.967598 
L 384.821536 58.296255 
L 384.903363 59.05573 
L 384.985191 68.878873 
L 385.067018 61.572665 
L 385.148846 65.315676 
L 385.230673 64.101486 
L 385.312501 51.846171 
L 385.394328 61.26081 
L 385.476156 46.4702 
L 385.557984 62.975396 
L 385.639811 57.874369 
L 385.721639 51.017615 
L 385.803466 54.175146 
L 385.885294 53.839394 
L 386.048949 48.30765 
L 386.130776 57.111294 
L 386.294431 44.274928 
L 386.376259 56.938291 
L 386.458086 37.0405 
L 386.539914 49.081701 
L 386.621741 47.419178 
L 386.703569 53.324672 
L 386.867224 42.505385 
L 386.949052 54.909739 
L 387.030879 51.761096 
L 387.112707 48.005458 
L 387.358189 29.134367 
L 387.440017 40.333641 
L 387.521844 39.875957 
L 387.603672 35.945447 
L 387.603672 35.945447 
" clip-path="url(#p9df524e366)" style="fill: none; stroke: #1f77b4; stroke-width: 1.5; stroke-linecap: square"/>
   </g>
   <g id="patch_3">
    <path d="M 60.080781 139.811562 
L 60.080781 10.8 
" style="fill: none; stroke: #000000; stroke-width: 0.8; stroke-linejoin: miter; stroke-linecap: square"/>
   </g>
   <g id="patch_4">
    <path d="M 403.2 139.811562 
L 403.2 10.8 
" style="fill: none; stroke: #000000; stroke-width: 0.8; stroke-linejoin: miter; stroke-linecap: square"/>
   </g>
   <g id="patch_5">
    <path d="M 60.080781 139.811563 
L 403.2 139.811563 
" style="fill: none; stroke: #000000; stroke-width: 0.8; stroke-linejoin: miter; stroke-linecap: square"/>
   </g>
   <g id="patch_6">
    <path d="M 60.080781 10.8 
L 403.2 10.8 
" style="fill: none; stroke: #000000; stroke-width: 0.8; stroke-linejoin: miter; stroke-linecap: square"/>
   </g>
  </g>
 </g>
 <defs>
  <clipPath id="p9df524e366">
   <rect x="60.080781" y="10.8" width="343.119219" height="129.011562"/>
  </clipPath>
 </defs>
</svg>
